<?xml version="1.0" standalone="no"?>
<!DOCTYPE svg PUBLIC "-//W3C//DTD SVG 20010904//EN"
 "http://www.w3.org/TR/2001/REC-SVG-20010904/DTD/svg10.dtd">
<svg version="1.0" xmlns="http://www.w3.org/2000/svg"
 width="1004.000000pt" height="1004.000000pt" viewBox="0 0 1004.000000 1004.000000"
 preserveAspectRatio="xMidYMid meet">
<metadata>
Created by potrace 1.11, written by Peter Selinger 2001-2013
</metadata>
<g transform="translate(0.000000,1004.000000) scale(0.100000,-0.100000)"
fill="#000000" stroke="none">
<path d="M51 10030 c-5 -4 -7 -2054 -2 -2107 1 -9 25 -12 79 -12 42 1 96 1
119 0 l42 -1 0 -138 1 -138 -130 1 -130 0 0 -3817 0 -3818 4999 0 4999 0 0
3818 0 3817 -119 0 c-65 -1 -120 2 -120 5 -1 3 -2 65 -3 138 l-2 132 51 1 c27
0 82 1 121 1 l72 0 -2 1061 -1 1062 -4983 0 c-2741 0 -4987 -2 -4991 -5z"/>
</g>
</svg>
