<?xml version="1.0" encoding="utf-8"?>
<!-- Generator: Adobe Illustrator 23.0.1, SVG Export Plug-In . SVG Version: 6.00 Build 0)  -->
<svg version="1.1" id="Layer_1" xmlns="http://www.w3.org/2000/svg" xmlns:xlink="http://www.w3.org/1999/xlink" x="0px" y="0px"
	 viewBox="0 0 139.2 139.7" style="enable-background:new 0 0 139.2 139.7;" xml:space="preserve">
<style type="text/css">
	.st0{fill:#FFFFFF;stroke:#FFFFFF;stroke-width:3;stroke-miterlimit:10;}
	.st1{fill:#C1272D;}
	.st2{fill:#006837;}
	.st3{fill:#FFFFFF;}
</style>
<title>cc_logo_expand_font</title>
<g>
	<rect x="1.8" y="2.2" class="st0" width="136" height="136"/>
	<rect y="33.4" class="st1" width="139.2" height="106.3"/>
	<rect x="0.2" class="st2" width="139" height="29.5"/>
	<rect x="108.2" y="15.7" class="st3" width="8" height="30"/>
	<rect x="24.2" y="15.7" class="st3" width="8" height="30"/>
	<path class="st3" d="M44.8,107c1.7,0.1,3.3-0.2,4.9-0.9c1.2-0.5,2.2-1.4,3-2.4c0.7-1.1,1.2-2.3,1.4-3.5c0.3-1.3,0.4-2.7,0.4-4.1
		v-1.4h10.3v1.4c0,6.5-1.7,11.5-5.1,15c-3.4,3.5-8.4,5.3-14.9,5.3c-6.2,0-11.2-1.9-14.8-5.7s-5.5-9.3-5.5-16.6V81.9
		c0-3.2,0.4-6.4,1.4-9.4c0.8-2.6,2.2-5,4.1-7c1.8-1.9,4-3.4,6.4-4.4c2.7-1,5.5-1.6,8.4-1.5c2.9-0.1,5.8,0.4,8.6,1.4
		c2.4,0.8,4.5,2.2,6.3,4c1.7,1.8,3,4,3.8,6.4c0.9,2.7,1.3,5.6,1.3,8.4v1.4H54.5v-1.4c0-1.3-0.2-2.6-0.5-3.9
		c-0.3-1.3-0.8-2.5-1.6-3.5c-0.8-1.1-1.8-1.9-3-2.5c-1.5-0.7-3.1-1-4.7-1c-1.5,0-3.1,0.3-4.5,1c-1.2,0.6-2.3,1.5-3.1,2.7
		c-0.9,1.2-1.5,2.5-1.8,3.9c-0.4,1.5-0.6,3.1-0.6,4.6v13.7c0,1.6,0.2,3.3,0.5,4.9c0.3,1.4,0.9,2.7,1.7,3.9c0.8,1.1,1.8,2,3.1,2.5
		C41.6,106.8,43.2,107.1,44.8,107z"/>
	<path class="st3" d="M96.5,107c1.7,0.1,3.3-0.2,4.9-0.9c1.2-0.5,2.2-1.4,3-2.4c0.7-1.1,1.2-2.3,1.4-3.5c0.3-1.3,0.4-2.7,0.4-4.1
		v-1.4h10.3v1.4c0,6.5-1.7,11.5-5.1,15c-3.4,3.5-8.4,5.3-14.9,5.3c-6.2,0-11.2-1.9-14.8-5.7s-5.5-9.3-5.5-16.6V81.9
		c0-3.2,0.4-6.4,1.4-9.4c0.8-2.6,2.2-5,4-7c1.8-1.9,4-3.4,6.4-4.4c2.7-1,5.5-1.6,8.4-1.5c2.9-0.1,5.9,0.4,8.6,1.4
		c2.4,0.8,4.5,2.2,6.3,4c1.7,1.8,3,4,3.8,6.4c0.9,2.7,1.3,5.6,1.3,8.4v1.4h-10.3v-1.4c0-1.3-0.2-2.6-0.5-3.9
		c-0.3-1.3-0.8-2.5-1.6-3.5c-0.8-1.1-1.8-1.9-3-2.5c-1.5-0.7-3.1-1.1-4.7-1c-1.5,0-3.1,0.3-4.4,1c-1.2,0.6-2.3,1.5-3.1,2.7
		c-0.9,1.2-1.5,2.5-1.8,3.9c-0.4,1.5-0.6,3.1-0.6,4.6v13.7c0,1.6,0.2,3.3,0.6,4.9c0.3,1.4,0.9,2.7,1.7,3.9c0.8,1.1,1.8,2,3.1,2.5
		C93.3,106.7,94.9,107.1,96.5,107z"/>
</g>
</svg>
