<svg xmlns="http://www.w3.org/2000/svg" viewBox="0 0 56.58 56.58"><defs><style>.cls-1{fill:none;}.cls-2{fill:#1a171b;}</style></defs><title>doodle2_single_sml</title><g id="Layer_2" data-name="Layer 2"><g id="Layer_1-2" data-name="Layer 1"><rect class="cls-1" x="0.06" y="0.06" width="56.45" height="56.45" transform="matrix(1, 0, 0, 1, 0.06, -0.06)"/><path class="cls-2" d="M49.13,32.56a.06.06,0,0,1,0,0,4.64,4.64,0,0,0-1.76-4l.52-1,.11-.23.07-.14a.8.8,0,0,0-.13-.93.79.79,0,0,0-1.27.2l-.09.17-.34.1-.52,1a4.65,4.65,0,0,0-5.35,2.4,4.55,4.55,0,0,0-.47,1.66v0a4.62,4.62,0,0,0,8.35,3.1A4.54,4.54,0,0,0,49.13,32.56Zm-8.4-2.31a4.38,4.38,0,0,1,.34-.56,4.68,4.68,0,0,0,1.25.93,4.51,4.51,0,0,0,2.76.42A4,4,0,0,1,49,32.64a4.21,4.21,0,0,1-.44,1.51,4,4,0,0,1-.34.56,4.53,4.53,0,0,0-4-1.36,4,4,0,0,1-3.87-1.59A4.4,4.4,0,0,1,40.73,30.25Zm6.82-3.84a.25.25,0,0,1,.11.35l-.07.15-.47-.23.07-.15A.27.27,0,0,1,47.55,26.41ZM46.41,27.5l.24-.47.7.35-.23.48Zm.16.81A4.33,4.33,0,0,1,49,31.83a4.56,4.56,0,0,0-4-1.31,4,4,0,0,1-3.59-1.25A4.37,4.37,0,0,1,46.57,28.31Zm-3.9,7.78a4.35,4.35,0,0,1-2.38-3.52,4.37,4.37,0,0,0,1.21.88,4.55,4.55,0,0,0,2.75.43,4,4,0,0,1,3.59,1.24A4.36,4.36,0,0,1,42.67,36.09Z"/><path class="cls-2" d="M47.56,8.69v0A3.58,3.58,0,0,0,46.2,5.57l.4-.8.09-.17.05-.11a.62.62,0,0,0-.1-.72.61.61,0,0,0-1,.16l-.06.12-.27.08-.4.8A3.58,3.58,0,0,0,40.8,6.78a3.73,3.73,0,0,0-.36,1.28v0a3.57,3.57,0,0,0,6.44,2.39A3.54,3.54,0,0,0,47.56,8.69ZM41.07,6.91a3.12,3.12,0,0,1,.27-.43,3.33,3.33,0,0,0,1,.71,3.47,3.47,0,0,0,2.13.33,3.11,3.11,0,0,1,3,1.23,3.32,3.32,0,0,1-.33,1.17c-.08.15-.17.29-.26.43a3.53,3.53,0,0,0-3.1-1,3.08,3.08,0,0,1-3-1.22A3.54,3.54,0,0,1,41.07,6.91Zm5.26-3a.2.2,0,0,1,.09.27l-.05.12L46,4.15,46.06,4A.2.2,0,0,1,46.33,4Zm-.87.84.18-.36.54.27L46,5.06Zm.12.62a3.36,3.36,0,0,1,1.84,2.72,3.53,3.53,0,0,0-3.06-1,3.1,3.1,0,0,1-2.77-1A3.36,3.36,0,0,1,45.58,5.41Zm-3,6A3.36,3.36,0,0,1,40.74,8.7a3.38,3.38,0,0,0,.92.68,3.54,3.54,0,0,0,2.13.33,3.09,3.09,0,0,1,2.77,1A3.37,3.37,0,0,1,42.57,11.42Z"/><path class="cls-2" d="M10.14,7.15a.06.06,0,0,0,0,0,4.64,4.64,0,0,0-1.76-4l.52-1L9,1.84l.07-.14A.79.79,0,1,0,7.69,1l-.08.17-.35.1-.52,1a4.65,4.65,0,0,0-5.35,2.4A4.54,4.54,0,0,0,.93,6.33a.08.08,0,0,0,0,0,4.63,4.63,0,0,0,8.36,3.1A4.53,4.53,0,0,0,10.14,7.15ZM1.74,4.84a3.52,3.52,0,0,1,.35-.56,4.38,4.38,0,0,0,1.25.93,4.48,4.48,0,0,0,2.75.42A4,4,0,0,1,10,7.23a4.4,4.4,0,0,1-.43,1.51,5.21,5.21,0,0,1-.34.56,4.55,4.55,0,0,0-4-1.36A4,4,0,0,1,1.31,6.35,4.4,4.4,0,0,1,1.74,4.84ZM8.56,1a.27.27,0,0,1,.12.35L8.6,1.5l-.47-.23.08-.15A.26.26,0,0,1,8.56,1ZM7.42,2.09l.24-.47L8.37,2l-.24.48Zm.17.81A4.35,4.35,0,0,1,10,6.42,4.57,4.57,0,0,0,6,5.11,4,4,0,0,1,2.42,3.86,4.36,4.36,0,0,1,7.59,2.9Zm-3.9,7.78A4.34,4.34,0,0,1,1.3,7.16a4.57,4.57,0,0,0,4,1.31A4,4,0,0,1,8.85,9.71,4.35,4.35,0,0,1,3.69,10.68Z"/><path class="cls-2" d="M30,48.71h0A3.6,3.6,0,0,0,26.76,50L26,49.55l-.17-.09-.11-.06a.62.62,0,0,0-.72.08.63.63,0,0,0,.12,1l.13.06.07.28.79.42a3.59,3.59,0,0,0,3,4.62h0a3.6,3.6,0,0,0,2.6-6.43A3.53,3.53,0,0,0,30,48.71Zm-2,6.48a4,4,0,0,1-.43-.28,3.32,3.32,0,0,0,.76-.95,3.55,3.55,0,0,0,.39-2.13,3.14,3.14,0,0,1,1.33-3,3.65,3.65,0,0,1,1.17.38,3,3,0,0,1,.42.27,3.53,3.53,0,0,0-1.14,3.09,3.12,3.12,0,0,1-1.33,3A3.39,3.39,0,0,1,28,55.19ZM25.13,49.8a.2.2,0,0,1,.28-.08l.12.06-.2.36-.11-.06A.21.21,0,0,1,25.13,49.8Zm.83.91-.36-.2.29-.54.36.2Zm.63-.11a3.41,3.41,0,0,1,2.79-1.77,3.55,3.55,0,0,0-1.11,3.05,3.1,3.1,0,0,1-1.05,2.76A3.38,3.38,0,0,1,26.59,50.6Zm6,3.22a3.37,3.37,0,0,1-2.79,1.76,3.29,3.29,0,0,0,.71-.91,3.48,3.48,0,0,0,.39-2.13,3.15,3.15,0,0,1,1.06-2.77A3.4,3.4,0,0,1,32.55,53.82Z"/><path class="cls-2" d="M46.9,45.18l-.59-.29a.84.84,0,0,0,.66-1,1.08,1.08,0,0,0-.61-.78,1.2,1.2,0,0,0-.58-.13,3.65,3.65,0,0,0-1.45.78,3.58,3.58,0,0,0-.24-1.62,1.22,1.22,0,0,0-.45-.39,1.14,1.14,0,0,0-1,0,.84.84,0,0,0-.37,1.11l-.59-.29a.18.18,0,0,0-.25.07L40.8,43.9a.19.19,0,0,0,.1.25l.17.09-1.41,2.82a.19.19,0,0,0,.1.25l1.71.85,1.27.64,1.71.85a.18.18,0,0,0,.25-.07l1.41-2.83h0a.19.19,0,0,0,.26-.07L47,45.42A.18.18,0,0,0,46.9,45.18Zm-.8,1.17L46,46.3l-1.47-.73.47-.94,1.57.78Zm-1.45-1.9-.47.94L43.32,45l.47-.94Zm1.27-1.19a.77.77,0,0,1,.37.08.71.71,0,0,1,.39.52.59.59,0,0,1-.57.66,2.4,2.4,0,0,1-1-.36L44.73,44A3.4,3.4,0,0,1,45.92,43.26Zm-3-1.27a.68.68,0,0,1,.65,0,.67.67,0,0,1,.28.25A3.41,3.41,0,0,1,44,43.61l-.38-.18h0c-.68-.34-.86-.52-.9-.59A.58.58,0,0,1,42.93,42ZM41.7,43l1.56.78-.47.94L41.32,44l-.09,0Zm-.28,1.43,1.39.69-1.33,2.67-1.39-.69ZM41.83,48l1.33-2.67.87.43L42.7,48.38Zm2.6,1.3L43,48.55l1.34-2.67,1.39.7Z"/><path class="cls-2" d="M26.9,5.18l-.59-.29a.84.84,0,0,0,.66-1,1.08,1.08,0,0,0-.61-.78A1.2,1.2,0,0,0,25.78,3a3.65,3.65,0,0,0-1.45.78,3.58,3.58,0,0,0-.24-1.62,1.22,1.22,0,0,0-.45-.39,1.14,1.14,0,0,0-1,0,.84.84,0,0,0-.37,1.11l-.59-.29a.18.18,0,0,0-.25.07L20.8,3.9a.19.19,0,0,0,.1.25l.17.09L19.66,7.06a.19.19,0,0,0,.1.25l1.71.85,1.27.64,1.71.85a.18.18,0,0,0,.25-.07l1.41-2.83h0a.19.19,0,0,0,.26-.07L27,5.42A.18.18,0,0,0,26.9,5.18Zm-.8,1.17-.1,0-1.47-.73L25,4.63l1.57.78Zm-1.45-1.9-.47.94L23.32,5,23.79,4Zm1.27-1.19a.77.77,0,0,1,.37.08.71.71,0,0,1,.39.52.59.59,0,0,1-.57.66,2.4,2.4,0,0,1-1-.36L24.73,4A3.4,3.4,0,0,1,25.92,3.26ZM22.93,2a.68.68,0,0,1,.65,0,.67.67,0,0,1,.28.25A3.41,3.41,0,0,1,24,3.61l-.38-.18h0c-.68-.34-.86-.52-.9-.59A.58.58,0,0,1,22.93,2ZM21.7,3l1.56.78-.47.94L21.32,4l-.09-.05Zm-.28,1.43,1.39.69L21.48,7.77l-1.39-.69ZM21.83,8l1.33-2.67.87.43L22.7,8.38Zm2.6,1.3L23,8.55l1.34-2.67,1.39.7Z"/><path class="cls-2" d="M6.72,23.63l-.58.28a.83.83,0,0,0-.37-1.1,1.1,1.1,0,0,0-1,0,1.19,1.19,0,0,0-.45.38,3.59,3.59,0,0,0-.26,1.62A3.45,3.45,0,0,0,2.62,24a1.15,1.15,0,0,0-.57.12,1.13,1.13,0,0,0-.63.79.83.83,0,0,0,.65,1l-.58.29a.18.18,0,0,0-.1.24L2,27.69a.19.19,0,0,0,.25.08l.18-.09,1.38,2.84a.19.19,0,0,0,.26.07l1.71-.84,1.28-.62,1.72-.84A.19.19,0,0,0,8.88,28L7.49,25.2h0a.18.18,0,0,0,.1-.24L7,23.7A.18.18,0,0,0,6.72,23.63ZM7.17,25l-.1.05-1.47.72-.47-.94L6.7,24ZM4.78,25l.47.94-.88.43-.46-.95Zm-.17-1.73A.84.84,0,0,1,4.89,23a.71.71,0,0,1,.65,0,.58.58,0,0,1,.18.85c0,.07-.22.25-.91.59a2.92,2.92,0,0,1-.37.17A3.4,3.4,0,0,1,4.61,23.24Zm-2.83,1.6a.68.68,0,0,1,.39-.51.8.8,0,0,1,.37-.08A3.57,3.57,0,0,1,3.73,25c-.11.06-.23.13-.37.19h0a2.6,2.6,0,0,1-1,.36A.58.58,0,0,1,1.78,24.84Zm0,1.58,1.57-.77.46,1-1.48.72-.09.05Zm1,1.09,1.4-.68,1.31,2.68-1.39.68Zm3.06,1.83L4.53,26.66l.87-.43,1.31,2.68Zm2.62-1.28-1.4.68L5.75,26.06l1.4-.68Z"/><path class="cls-2" d="M30.43,10.07l-.58.29a.83.83,0,0,0-.37-1.11,1.1,1.1,0,0,0-1,0,1.27,1.27,0,0,0-.45.38,3.73,3.73,0,0,0-.26,1.62,3.57,3.57,0,0,0-1.44-.79,1.27,1.27,0,0,0-.57.12,1.15,1.15,0,0,0-.63.79.85.85,0,0,0,.66,1l-.59.28a.19.19,0,0,0-.1.24l.62,1.27a.19.19,0,0,0,.25.07l.18-.09L27.54,17a.18.18,0,0,0,.25.07l1.71-.83,1.28-.63,1.72-.84a.2.2,0,0,0,.1-.24l-1.39-2.84h0a.19.19,0,0,0,.09-.25l-.61-1.26A.2.2,0,0,0,30.43,10.07Zm.45,1.35-.1,0-1.47.73-.47-.95,1.57-.77Zm-2.38,0,.46.95-.87.42-.47-.94Zm-.18-1.73a.68.68,0,0,1,.29-.24.66.66,0,0,1,.64,0,.58.58,0,0,1,.18.86,2.37,2.37,0,0,1-.9.58l-.38.18A3.46,3.46,0,0,1,28.32,9.68Zm-2.83,1.6a.72.72,0,0,1,.76-.58,3.25,3.25,0,0,1,1.19.71l-.37.19h0a2.46,2.46,0,0,1-1,.35A.58.58,0,0,1,25.49,11.28Zm0,1.58,1.57-.77.46.95-1.47.72-.1.05Zm1,1.09,1.39-.68L29.2,16l-1.39.68Zm3.05,1.83L28.24,13.1l.87-.43,1.31,2.68Zm2.62-1.28-1.4.68L29.46,12.5l1.4-.68Z"/><path class="cls-2" d="M53.63,21.41,53,21.7a.83.83,0,0,0-.36-1.11,1.1,1.1,0,0,0-1,0,1.12,1.12,0,0,0-.45.38A3.46,3.46,0,0,0,51,22.6a3.7,3.7,0,0,0-1.44-.79,1.29,1.29,0,0,0-.58.12,1.14,1.14,0,0,0-.62.79.82.82,0,0,0,.65,1l-.59.29a.18.18,0,0,0-.09.24l.61,1.27a.2.2,0,0,0,.25.07l.18-.09,1.39,2.84a.18.18,0,0,0,.25.07l1.71-.84L54,26.91l1.71-.84a.19.19,0,0,0,.1-.24L54.4,23h0a.19.19,0,0,0,.09-.25l-.61-1.26A.18.18,0,0,0,53.63,21.41Zm.44,1.35-.09,0-1.48.72L52,22.58l1.57-.77Zm-2.38,0,.46.95-.87.42-.47-.94ZM51.51,21a.68.68,0,0,1,.29-.24.66.66,0,0,1,.64,0,.59.59,0,0,1,.19.86,2.8,2.8,0,0,1-.91.58l-.37.18A3.49,3.49,0,0,1,51.51,21Zm-2.83,1.6a.72.72,0,0,1,.76-.58,3.25,3.25,0,0,1,1.19.71l-.37.18h0a2.43,2.43,0,0,1-1,.36A.58.58,0,0,1,48.68,22.62Zm0,1.58,1.57-.77.46.95-1.47.72-.1,0Zm1,1.09,1.39-.68,1.32,2.68L51,28Zm3.05,1.83-1.31-2.68L52.3,24l1.32,2.68Zm2.62-1.28L54,26.52l-1.32-2.68,1.4-.68Z"/><path class="cls-2" d="M45.21,54.16a.14.14,0,0,0-.1-.07.57.57,0,0,1-.29-.08.65.65,0,0,1-.32-.53.17.17,0,0,0-.06-.1.13.13,0,0,0-.12,0,.63.63,0,0,1-.61,0h0a1.34,1.34,0,0,0-.07-.18.66.66,0,0,0-.23-.24.59.59,0,0,1,0-.14.66.66,0,0,1,.3-.54.12.12,0,0,0,0-.2.65.65,0,0,1-.29-.54.67.67,0,0,1,.07-.31.13.13,0,0,0,0-.12.11.11,0,0,0-.12,0h-.07a.64.64,0,0,1-.57-.34.13.13,0,0,0-.12-.06.11.11,0,0,0-.1.06.67.67,0,0,1-.58.34h-.07a.1.1,0,0,0-.11,0,.1.1,0,0,0,0,.12.69.69,0,0,1,0,.61.66.66,0,0,1-.23.24.12.12,0,0,0,0,.1.14.14,0,0,0,0,.1.63.63,0,0,1,.28.41.68.68,0,0,0-.25.37.93.93,0,0,0,0,.23l-.09.07a.65.65,0,0,1-.62,0,.13.13,0,0,0-.12,0,.15.15,0,0,0-.06.09.66.66,0,0,1-.33.53A.74.74,0,0,1,40,54a.11.11,0,0,0-.1.06.12.12,0,0,0,0,.13l.06.08a.68.68,0,0,1,0,.62A.11.11,0,0,0,40,55a.11.11,0,0,0,.1.06.67.67,0,0,1,.52.34l0,.09a.14.14,0,0,0,.1.08h0a.12.12,0,0,0,.1,0,.7.7,0,0,1,.38-.27.77.77,0,0,1,.47.07.12.12,0,0,0,.1,0,.1.1,0,0,0,.06-.09.65.65,0,0,1,.28-.48h.14a.61.61,0,0,0,.39-.13h0a.79.79,0,0,1,.26.08.66.66,0,0,1,.32.53.17.17,0,0,0,.06.1.13.13,0,0,0,.12,0,.68.68,0,0,1,.62,0,.6.6,0,0,1,.21.21.12.12,0,0,0,.1,0h0a.1.1,0,0,0,.1-.07.93.93,0,0,1,.05-.1.63.63,0,0,1,.52-.32.11.11,0,0,0,.1-.06.11.11,0,0,0,0-.11.65.65,0,0,1,0-.62l.06-.08A.15.15,0,0,0,45.21,54.16Zm-3.42-2a.88.88,0,0,0,.28-.65,1,1,0,0,0,0-.24.86.86,0,0,0,.59-.31.91.91,0,0,0,.6.32.93.93,0,0,0,0,.24.91.91,0,0,0,.27.64.92.92,0,0,0-.28.64.13.13,0,0,0,0,.06h-.07a.7.7,0,0,0-.33.09h0s0,0,0-.08l0,0h0V51.4a.13.13,0,0,0-.12-.12.12.12,0,0,0-.12.12v1.2a.47.47,0,0,0-.15-.06l-.15,0-.18,0A.83.83,0,0,0,41.79,52.15Zm0,.94a.42.42,0,0,1,.41-.33h.1a.41.41,0,0,1,.24.19.48.48,0,0,1,0,.33.57.57,0,0,1-.1.19h0l-.16,0a.61.61,0,0,0-.35.11A.42.42,0,0,1,41.77,53.09Zm-.12,2a.9.9,0,0,0-.7.07,1.09,1.09,0,0,0-.17.13.91.91,0,0,0-.53-.39.92.92,0,0,0,0-.65.56.56,0,0,0,.2-.08.91.91,0,0,0,.43-.55.9.9,0,0,0,.7-.07l.05,0a.76.76,0,0,0,.18.22h0a.7.7,0,0,0-.11.23v0l-1.06.58a.12.12,0,0,0-.05.16.11.11,0,0,0,.11.06h.05l.94-.52a.63.63,0,0,0,.08.23.77.77,0,0,0,.17.19A.83.83,0,0,0,41.65,55.08Zm1-.85a.44.44,0,0,1-.51.32.41.41,0,0,1-.24-.19.45.45,0,0,1,0-.34.44.44,0,0,1,.41-.33h.1A.43.43,0,0,1,42.69,54.23Zm0-.64a.66.66,0,0,0,.11-.24.41.41,0,0,0,0-.16.44.44,0,0,1,.29-.11h.09a.41.41,0,0,1,.25.19.46.46,0,0,1-.37.67l-.09,0-.07,0A.62.62,0,0,0,42.68,53.59ZM44.84,55a.89.89,0,0,0-.54.37.7.7,0,0,0-.17-.13.88.88,0,0,0-.44-.12,1.09,1.09,0,0,0-.26,0,.85.85,0,0,0-.42-.56.7.7,0,0,0-.2-.08.61.61,0,0,0,.07-.17.5.5,0,0,0,0-.12H43a.57.57,0,0,0,.18,0l1.15.67h.06a.12.12,0,0,0,.1,0,.13.13,0,0,0,0-.17l-1-.59h0a.68.68,0,0,0,.22-.35.09.09,0,0,1,0-.05h0a.89.89,0,0,0,.58,0,.91.91,0,0,0,.42.56.88.88,0,0,0,.2.09A.86.86,0,0,0,44.84,55Z"/><path class="cls-2" d="M38.42,48.48a.14.14,0,0,0-.11-.07.57.57,0,0,1-.28-.08.66.66,0,0,1-.33-.51.11.11,0,0,0-.05-.09.17.17,0,0,0-.12,0,.68.68,0,0,1-.62,0h0a1.34,1.34,0,0,0-.07-.18.69.69,0,0,0-.23-.22.68.68,0,0,1,0-.14.6.6,0,0,1,.3-.52.12.12,0,0,0,0-.1.11.11,0,0,0,0-.09.62.62,0,0,1-.29-.53.59.59,0,0,1,.07-.29.13.13,0,0,0,0-.12.13.13,0,0,0-.12,0h-.07a.64.64,0,0,1-.57-.34.16.16,0,0,0-.12-.06.13.13,0,0,0-.1.06.66.66,0,0,1-.58.33H35a.1.1,0,0,0-.11,0,.09.09,0,0,0,0,.11.67.67,0,0,1,0,.6.69.69,0,0,1-.23.22.17.17,0,0,0-.06.1.1.1,0,0,0,.06.09A.7.7,0,0,1,35,47a.66.66,0,0,0-.25.36.82.82,0,0,0,0,.22l-.1.07a.71.71,0,0,1-.62,0,.11.11,0,0,0-.11,0,.11.11,0,0,0-.06.09.63.63,0,0,1-.33.5.74.74,0,0,1-.29.08.09.09,0,0,0-.1.06.1.1,0,0,0,0,.12l.06.08a.64.64,0,0,1,0,.6.11.11,0,0,0,0,.11.17.17,0,0,0,.1.06.63.63,0,0,1,.52.32l0,.09a.1.1,0,0,0,.1.07h0a.1.1,0,0,0,.1,0,.67.67,0,0,1,.38-.25.76.76,0,0,1,.47.06.12.12,0,0,0,.1,0,.09.09,0,0,0,.06-.09.67.67,0,0,1,.27-.46l.15,0a.68.68,0,0,0,.39-.13h0a.79.79,0,0,1,.26.08.63.63,0,0,1,.32.51.13.13,0,0,0,.17.1.68.68,0,0,1,.62,0,.61.61,0,0,1,.22.2.12.12,0,0,0,.1,0h0a.11.11,0,0,0,.1-.07l0-.09a.66.66,0,0,1,.53-.31.11.11,0,0,0,.1-.06.09.09,0,0,0,0-.1.61.61,0,0,1,0-.6l.06-.08A.13.13,0,0,0,38.42,48.48ZM35,46.54a.86.86,0,0,0,.28-.62.59.59,0,0,0,0-.23.86.86,0,0,0,.6-.31.86.86,0,0,0,.6.31.93.93,0,0,0,0,.23.82.82,0,0,0,.28.62.82.82,0,0,0-.28.62v.05h-.07a.59.59,0,0,0-.32.09h0a.36.36,0,0,1,0-.09l0,0h0V45.82a.11.11,0,0,0-.11-.11.11.11,0,0,0-.12.11V47l-.14,0a.39.39,0,0,0-.15,0l-.18,0A.85.85,0,0,0,35,46.54Zm0,.9a.43.43,0,0,1,.41-.31h.09a.36.36,0,0,1,.25.18.4.4,0,0,1,0,.32.38.38,0,0,1-.09.18h0a.47.47,0,0,0-.16,0,.68.68,0,0,0-.35.1A.41.41,0,0,1,35,47.44Zm-.12,1.92a1,1,0,0,0-.7.07l-.18.12a.9.9,0,0,0-.52-.37.79.79,0,0,0-.05-.62l.21-.08a.87.87,0,0,0,.43-.53,1,1,0,0,0,.7-.07l0,0a.52.52,0,0,0,.18.21h0a.61.61,0,0,0-.11.23h0l-1.06.56a.12.12,0,0,0-.05.16.11.11,0,0,0,.11.06l.05,0,.94-.5a.63.63,0,0,0,.08.23.55.55,0,0,0,.17.17A.85.85,0,0,0,34.86,49.36Zm1-.82a.44.44,0,0,1-.51.31.4.4,0,0,1-.24-.18.42.42,0,0,1,0-.33.43.43,0,0,1,.41-.31h.1A.4.4,0,0,1,35.9,48.54Zm0-.62A.57.57,0,0,0,36,47.7a.39.39,0,0,0,0-.15.44.44,0,0,1,.29-.11h.09a.36.36,0,0,1,.25.18.4.4,0,0,1,0,.32.43.43,0,0,1-.41.32h-.09l-.08,0A.62.62,0,0,0,35.89,47.92Zm2.16,1.31a.92.92,0,0,0-.54.36.66.66,0,0,0-.17-.12.89.89,0,0,0-.45-.12.73.73,0,0,0-.25,0,.86.86,0,0,0-.42-.55l-.2-.08a.46.46,0,0,0,.07-.16.5.5,0,0,0,0-.12l.14,0a.57.57,0,0,0,.18,0l1.15.64.06,0a.11.11,0,0,0,.1-.06.13.13,0,0,0,0-.16l-1-.57h0a.69.69,0,0,0,.22-.33.13.13,0,0,1,0-.06h0a.83.83,0,0,0,.58,0,.89.89,0,0,0,.42.55l.2.08A.79.79,0,0,0,38.05,49.23Z"/><path class="cls-2" d="M16,30.37a.12.12,0,0,0-.1-.07.75.75,0,0,1-.29-.09.65.65,0,0,1-.32-.53.11.11,0,0,0-.06-.09.14.14,0,0,0-.11,0,.68.68,0,0,1-.62,0l0,0h0a.45.45,0,0,0-.07-.18.51.51,0,0,0-.23-.23.66.66,0,0,1,0-.14.65.65,0,0,1,.29-.54.12.12,0,0,0,.06-.1.11.11,0,0,0-.06-.1.66.66,0,0,1-.29-.55.64.64,0,0,1,.08-.3.15.15,0,0,0,0-.13.16.16,0,0,0-.11-.05H14a.63.63,0,0,1-.57-.35.13.13,0,0,0-.11-.06.11.11,0,0,0-.11.06.65.65,0,0,1-.58.35H12.6a.11.11,0,0,0-.11.05.13.13,0,0,0,0,.12.68.68,0,0,1,0,.62.51.51,0,0,1-.23.23.12.12,0,0,0,0,.2.64.64,0,0,1,.28.41.62.62,0,0,0-.24.37.49.49,0,0,0,0,.24l-.1.07a.68.68,0,0,1-.62,0,.14.14,0,0,0-.11,0,.11.11,0,0,0-.06.1.67.67,0,0,1-.34.52.6.6,0,0,1-.29.08.12.12,0,0,0-.1.07.13.13,0,0,0,0,.12.47.47,0,0,1,.06.09.62.62,0,0,1,0,.62.14.14,0,0,0,0,.11.1.1,0,0,0,.09.06.66.66,0,0,1,.52.33.3.3,0,0,1,0,.1.12.12,0,0,0,.1.07h0a.11.11,0,0,0,.1-.06A.64.64,0,0,1,12,31.5a.76.76,0,0,1,.47.06.14.14,0,0,0,.11,0,.17.17,0,0,0,.06-.1.63.63,0,0,1,.27-.48L13,31a.65.65,0,0,0,.39-.13h0a.57.57,0,0,1,.26.08.63.63,0,0,1,.33.53.1.1,0,0,0,.06.09.11.11,0,0,0,.11,0,.65.65,0,0,1,.62,0,.58.58,0,0,1,.21.2.12.12,0,0,0,.1.06h0a.12.12,0,0,0,.09-.08.73.73,0,0,1,0-.09.68.68,0,0,1,.53-.33.11.11,0,0,0,.09-.05.17.17,0,0,0,0-.12.65.65,0,0,1,0-.62l.06-.08A.11.11,0,0,0,16,30.37Zm-3.42-2a.85.85,0,0,0,.28-.64,1,1,0,0,0,0-.24.9.9,0,0,0,.6-.32.85.85,0,0,0,.59.32,1,1,0,0,0,0,.24.91.91,0,0,0,.27.65A.88.88,0,0,0,14,29v.05h-.07a.63.63,0,0,0-.33.09h0a.36.36,0,0,0,0-.09s0,0,0,0h0V27.61a.12.12,0,1,0-.24,0V28.8l-.14-.05a.47.47,0,0,0-.16,0l-.18,0A.83.83,0,0,0,12.57,28.35Zm0,.94A.44.44,0,0,1,13,29h.1a.44.44,0,0,1,.25.2.47.47,0,0,1,0,.33.4.4,0,0,1-.1.18h0l-.16,0a.66.66,0,0,0-.35.11A.44.44,0,0,1,12.55,29.29Zm-.12,2a.84.84,0,0,0-.69.07.57.57,0,0,0-.18.12A.9.9,0,0,0,11,31.1a.86.86,0,0,0,0-.65l.2-.08a.87.87,0,0,0,.43-.56.9.9,0,0,0,.7-.06l0,0a.71.71,0,0,0,.19.23h0a.66.66,0,0,0-.11.24h0l-1.06.59a.11.11,0,0,0,0,.16.11.11,0,0,0,.1.06l.06,0,.93-.51a.73.73,0,0,0,.09.23.69.69,0,0,0,.16.18A.86.86,0,0,0,12.43,31.29Zm1-.86a.41.41,0,0,1-.75.14.46.46,0,0,1-.05-.34.42.42,0,0,1,.41-.33h.1A.42.42,0,0,1,13.47,30.43Zm0-.64a1,1,0,0,0,.11-.23,1,1,0,0,0,0-.16.4.4,0,0,1,.28-.12l.1,0a.39.39,0,0,1,.25.19.47.47,0,0,1,0,.33.44.44,0,0,1-.41.33h-.1l-.07,0A.66.66,0,0,0,13.47,29.79Zm2.15,1.36a.93.93,0,0,0-.54.37,1.09,1.09,0,0,0-.17-.13.86.86,0,0,0-.44-.12.78.78,0,0,0-.26,0,.84.84,0,0,0-.41-.56,1,1,0,0,0-.21-.09.89.89,0,0,0,.08-.17.49.49,0,0,0,0-.12l.14,0a.58.58,0,0,0,.19,0l1.14.66.06,0a.11.11,0,0,0,.1-.06.11.11,0,0,0,0-.16l-1-.6h0a.6.6,0,0,0,.21-.34.13.13,0,0,0,0-.06h0a.86.86,0,0,0,.59,0,.86.86,0,0,0,.42.57l.2.08A.92.92,0,0,0,15.62,31.15Z"/><path class="cls-2" d="M34.6,35.38a.14.14,0,0,0-.1-.07.6.6,0,0,1-.29-.08.65.65,0,0,1-.32-.53.11.11,0,0,0-.06-.1.11.11,0,0,0-.11,0,.65.65,0,0,1-.62,0h0a.64.64,0,0,0-.06-.18.69.69,0,0,0-.24-.24.57.57,0,0,1,0-.13.65.65,0,0,1,.3-.55.12.12,0,0,0,0-.1.14.14,0,0,0,0-.1.63.63,0,0,1-.3-.54.68.68,0,0,1,.08-.31.11.11,0,0,0,0-.12.12.12,0,0,0-.11,0h-.08a.7.7,0,0,1-.57-.35.13.13,0,0,0-.11-.06.11.11,0,0,0-.11.06.65.65,0,0,1-.58.34h-.06a.11.11,0,0,0-.12,0,.11.11,0,0,0,0,.12.69.69,0,0,1,0,.61.51.51,0,0,1-.22.24.11.11,0,0,0-.06.1.14.14,0,0,0,.05.1.6.6,0,0,1,.28.41.67.67,0,0,0-.24.37.65.65,0,0,0,0,.24l-.1.07a.68.68,0,0,1-.62,0,.11.11,0,0,0-.11,0,.11.11,0,0,0-.06.1.67.67,0,0,1-.34.52.7.7,0,0,1-.29.08.1.1,0,0,0-.1.07.13.13,0,0,0,0,.12.33.33,0,0,1,.06.08.65.65,0,0,1,0,.62.13.13,0,0,0,0,.12.15.15,0,0,0,.09.06.63.63,0,0,1,.52.33.36.36,0,0,1,0,.09.11.11,0,0,0,.1.08h0a.12.12,0,0,0,.09,0,.64.64,0,0,1,.38-.26.73.73,0,0,1,.48.06.12.12,0,0,0,.1,0,.11.11,0,0,0,.06-.09A.61.61,0,0,1,31.5,36l.14,0a.6.6,0,0,0,.39-.14h0a.62.62,0,0,1,.27.09.63.63,0,0,1,.32.52.11.11,0,0,0,.06.1.11.11,0,0,0,.11,0,.68.68,0,0,1,.62,0,.63.63,0,0,1,.22.21.12.12,0,0,0,.1,0h0a.12.12,0,0,0,.1-.07.3.3,0,0,1,0-.1.65.65,0,0,1,.53-.32.1.1,0,0,0,.09-.06.11.11,0,0,0,0-.11.65.65,0,0,1,0-.62.35.35,0,0,1,0-.08A.12.12,0,0,0,34.6,35.38Zm-3.42-2a.89.89,0,0,0,.25-.88.94.94,0,0,0,.6-.32.92.92,0,0,0,.59.32,1,1,0,0,0,0,.24.85.85,0,0,0,.28.64.88.88,0,0,0-.28.65v0h-.07a.64.64,0,0,0-.33.1h0a.36.36,0,0,0,0-.09v0h0V32.62A.12.12,0,0,0,32,32.5a.13.13,0,0,0-.12.12v1.2l-.14-.06-.16,0a.57.57,0,0,0-.18,0A.83.83,0,0,0,31.18,33.37Zm0,.94a.42.42,0,0,1,.41-.33h.1a.44.44,0,0,1,.25.19.47.47,0,0,1,0,.33.39.39,0,0,1-.1.19h0a.39.39,0,0,0-.15,0,.75.75,0,0,0-.36.1A.42.42,0,0,1,31.16,34.31Zm-.11,2a.94.94,0,0,0-.7.07.83.83,0,0,0-.18.13.86.86,0,0,0-.53-.38.86.86,0,0,0,0-.65l.2-.08a.87.87,0,0,0,.43-.56.9.9,0,0,0,.7-.07l.05,0a.67.67,0,0,0,.19.22h0a.7.7,0,0,0-.11.23v0L30,35.78a.13.13,0,0,0,0,.16.11.11,0,0,0,.1.06h.06l.94-.52a.63.63,0,0,0,.08.23.6.6,0,0,0,.16.19A.82.82,0,0,0,31.05,36.3Zm1-.85a.43.43,0,0,1-.5.32.4.4,0,0,1-.25-.19.44.44,0,0,1,0-.34.43.43,0,0,1,.41-.33l.09,0A.42.42,0,0,1,32.08,35.45Zm0-.64a.66.66,0,0,0,.11-.24.77.77,0,0,0,0-.15.38.38,0,0,1,.28-.12h.1a.44.44,0,0,1,.25.2.47.47,0,0,1,0,.33.44.44,0,0,1-.41.33l-.1,0-.07,0A.66.66,0,0,0,32.08,34.81Zm2.15,1.36a.84.84,0,0,0-.53.37,1.18,1.18,0,0,0-.18-.13.86.86,0,0,0-.44-.12,1,1,0,0,0-.25,0,.94.94,0,0,0-.42-.56l-.2-.08a.87.87,0,0,0,.07-.17s0-.08,0-.12h.13a.58.58,0,0,0,.19,0l1.14.67.06,0a.14.14,0,0,0,.11-.06.12.12,0,0,0,0-.16l-1-.6h0a.68.68,0,0,0,.21-.34.13.13,0,0,0,0-.06h0a.92.92,0,0,0,.59,0,.85.85,0,0,0,.42.56.72.72,0,0,0,.2.09A.91.91,0,0,0,34.23,36.17Z"/><path class="cls-2" d="M55.76,4.45a.09.09,0,0,0-.1-.07.71.71,0,0,1-.28-.09.68.68,0,0,1-.33-.53.11.11,0,0,0-.06-.1.11.11,0,0,0-.11,0,.65.65,0,0,1-.62,0h0a1.34,1.34,0,0,0-.07-.18A.63.63,0,0,0,54,3.22a.78.78,0,0,1,0-.14.65.65,0,0,1,.3-.55.12.12,0,0,0,.05-.1.14.14,0,0,0-.05-.1.6.6,0,0,1-.29-.54A.67.67,0,0,1,54,1.48a.13.13,0,0,0,0-.12.17.17,0,0,0-.12-.05h-.07A.65.65,0,0,1,53.25,1a.13.13,0,0,0-.12-.06A.11.11,0,0,0,53,1a.67.67,0,0,1-.58.34h-.07a.09.09,0,0,0-.11.05.1.1,0,0,0,0,.12.69.69,0,0,1,0,.61.59.59,0,0,1-.23.24.13.13,0,0,0-.06.1.11.11,0,0,0,.06.1.67.67,0,0,1,.28.41.68.68,0,0,0-.25.37,1,1,0,0,0,0,.24l-.1.07a.68.68,0,0,1-.62,0,.11.11,0,0,0-.11,0,.13.13,0,0,0-.06.1.66.66,0,0,1-.33.52.74.74,0,0,1-.29.08.12.12,0,0,0-.11.07.13.13,0,0,0,0,.12l.06.08a.68.68,0,0,1,0,.62.13.13,0,0,0,0,.12.17.17,0,0,0,.1.06.64.64,0,0,1,.52.33l0,.09a.09.09,0,0,0,.09.08h0a.12.12,0,0,0,.1,0,.64.64,0,0,1,.38-.26.7.7,0,0,1,.47.06.12.12,0,0,0,.1,0,.1.1,0,0,0,.06-.09.67.67,0,0,1,.27-.48l.15,0a.62.62,0,0,0,.39-.14h0a.62.62,0,0,1,.26.09.65.65,0,0,1,.32.53.13.13,0,0,0,.17.1.65.65,0,0,1,.62,0,.63.63,0,0,1,.22.21.12.12,0,0,0,.1,0h0a.11.11,0,0,0,.1-.07.39.39,0,0,1,0-.09.66.66,0,0,1,.53-.33.11.11,0,0,0,.1-.06.11.11,0,0,0,0-.11.65.65,0,0,1,0-.62.42.42,0,0,1,.06-.08A.11.11,0,0,0,55.76,4.45Zm-3.41-2a.92.92,0,0,0,.28-.64.64.64,0,0,0,0-.24.91.91,0,0,0,.6-.32.91.91,0,0,0,.6.32,1,1,0,0,0,0,.24.85.85,0,0,0,.28.64.88.88,0,0,0-.28.65v0h-.07a.6.6,0,0,0-.32.1h0a.36.36,0,0,1,0-.09s0,0,0,0h0V1.68a.11.11,0,0,0-.11-.11.11.11,0,0,0-.12.11v1.2l-.14-.06-.15,0a.52.52,0,0,0-.18,0A.91.91,0,0,0,52.35,2.43Zm0,.94A.44.44,0,0,1,52.74,3h.09a.39.39,0,0,1,.25.2.41.41,0,0,1,0,.33.38.38,0,0,1-.09.18h0a.47.47,0,0,0-.16,0,.68.68,0,0,0-.35.1A.42.42,0,0,1,52.33,3.37Zm-.12,2a.94.94,0,0,0-.7.07l-.18.13a.84.84,0,0,0-.52-.38.86.86,0,0,0-.05-.65L51,4.45a.9.9,0,0,0,.43-.56.9.9,0,0,0,.7-.07l0,0a.55.55,0,0,0,.18.22h0a.66.66,0,0,0-.11.24h0l-1.06.58a.12.12,0,0,0,0,.16.12.12,0,0,0,.1.07l.06,0,.94-.52a.63.63,0,0,0,.08.23.52.52,0,0,0,.17.19A.83.83,0,0,0,52.21,5.36Zm1-.85a.44.44,0,0,1-.51.32.38.38,0,0,1-.24-.19.45.45,0,0,1,0-.34A.44.44,0,0,1,52.86,4L53,4A.42.42,0,0,1,53.25,4.51Zm0-.64a.66.66,0,0,0,.11-.24.39.39,0,0,0,0-.15.4.4,0,0,1,.29-.12h.09a.39.39,0,0,1,.25.2.42.42,0,0,1,0,.33.44.44,0,0,1-.41.33h-.09l-.08,0A.6.6,0,0,0,53.24,3.87Zm2.15,1.36a.9.9,0,0,0-.53.37,1.09,1.09,0,0,0-.17-.13.89.89,0,0,0-.45-.12.73.73,0,0,0-.25,0,.9.9,0,0,0-.42-.57l-.2-.08a.87.87,0,0,0,.07-.17.5.5,0,0,0,0-.12h.14l.18,0,1.15.66.06,0a.11.11,0,0,0,.1-.06.12.12,0,0,0,0-.16l-1-.6h0A.72.72,0,0,0,54.24,4a.13.13,0,0,1,0-.06h0a.83.83,0,0,0,.58,0,.93.93,0,0,0,.62.65A.91.91,0,0,0,55.39,5.23Z"/><path class="cls-2" d="M18.56,4.79a.13.13,0,0,0-.1-.07.6.6,0,0,1-.29-.08.65.65,0,0,1-.32-.53.11.11,0,0,0-.06-.1.11.11,0,0,0-.11,0,.65.65,0,0,1-.62,0h0A.64.64,0,0,0,17,3.8a.76.76,0,0,0-.23-.24.59.59,0,0,1,0-.14.63.63,0,0,1,.3-.54.13.13,0,0,0,0-.2.63.63,0,0,1-.3-.54.68.68,0,0,1,.08-.31.11.11,0,0,0,0-.12.1.1,0,0,0-.11-.05h-.07A.67.67,0,0,1,16,1.32a.13.13,0,0,0-.11-.06.14.14,0,0,0-.11.06.65.65,0,0,1-.58.34h-.06a.11.11,0,0,0-.12.05.13.13,0,0,0,0,.12.69.69,0,0,1,0,.61.56.56,0,0,1-.22.24.11.11,0,0,0-.06.1.14.14,0,0,0,.05.1.6.6,0,0,1,.28.41.73.73,0,0,0-.24.37.62.62,0,0,0,0,.23l-.1.07a.65.65,0,0,1-.62,0A.11.11,0,0,0,14,4a.1.1,0,0,0-.06.09.67.67,0,0,1-.34.53.7.7,0,0,1-.29.08.11.11,0,0,0-.1.06.13.13,0,0,0,0,.13.35.35,0,0,1,.05.08.65.65,0,0,1,0,.62.11.11,0,0,0,0,.11.1.1,0,0,0,.09.06.66.66,0,0,1,.52.34l.05.09a.12.12,0,0,0,.09.08h0a.11.11,0,0,0,.09,0,.69.69,0,0,1,.39-.27A.78.78,0,0,1,15,6a.12.12,0,0,0,.1,0,.11.11,0,0,0,.06-.09.61.61,0,0,1,.27-.48h.15A.61.61,0,0,0,16,5.29h0a.79.79,0,0,1,.26.08.66.66,0,0,1,.32.53.11.11,0,0,0,.06.1.11.11,0,0,0,.11,0,.68.68,0,0,1,.62,0,.63.63,0,0,1,.22.21.12.12,0,0,0,.1,0h0a.12.12,0,0,0,.1-.07,1,1,0,0,1,0-.1.65.65,0,0,1,.53-.32.11.11,0,0,0,.1-.06.11.11,0,0,0,0-.11.65.65,0,0,1,0-.62.21.21,0,0,1,.06-.08A.15.15,0,0,0,18.56,4.79Zm-3.41-2a.91.91,0,0,0,.27-.65,1,1,0,0,0,0-.24.88.88,0,0,0,.6-.31.91.91,0,0,0,.6.32.64.64,0,0,0,0,.24.86.86,0,0,0,.28.64.88.88,0,0,0-.28.64v.06h-.07a.74.74,0,0,0-.33.09h0a.3.3,0,0,0,0-.08v0h0V2A.12.12,0,0,0,16,1.91a.13.13,0,0,0-.12.12v1.2a.35.35,0,0,0-.14-.06l-.16,0a.47.47,0,0,0-.17,0A1,1,0,0,0,15.15,2.78Zm0,.94a.42.42,0,0,1,.41-.33h.1a.44.44,0,0,1,.25.19.42.42,0,0,1,0,.33.44.44,0,0,1-.1.19h0l-.15,0a.66.66,0,0,0-.36.11A.44.44,0,0,1,15.12,3.72Zm-.11,2a.9.9,0,0,0-.7.07.83.83,0,0,0-.18.13.92.92,0,0,0-.52-.39.92.92,0,0,0,0-.65.5.5,0,0,0,.2-.08.87.87,0,0,0,.43-.55.9.9,0,0,0,.7-.07l.06,0a.63.63,0,0,0,.18.22h0a.7.7,0,0,0-.11.23v0L14,5.19a.12.12,0,0,0-.05.16.11.11,0,0,0,.1.06h.06L15,4.88a.63.63,0,0,0,.08.23.74.74,0,0,0,.16.19A.82.82,0,0,0,15,5.71Zm1-.85a.42.42,0,0,1-.5.32A.44.44,0,0,1,15.29,5a.44.44,0,0,1,0-.34.44.44,0,0,1,.41-.33h.09A.43.43,0,0,1,16,4.86Zm0-.64A.66.66,0,0,0,16.15,4a.78.78,0,0,0,0-.16.43.43,0,0,1,.28-.11h.1a.41.41,0,0,1,.29.52.43.43,0,0,1-.41.34l-.1,0-.07,0A.66.66,0,0,0,16,4.22Zm2.15,1.36a.84.84,0,0,0-.53.37.59.59,0,0,0-.18-.13A.83.83,0,0,0,17,5.7a1,1,0,0,0-.25,0,.91.91,0,0,0-.42-.56.7.7,0,0,0-.2-.08,1.22,1.22,0,0,0,.07-.17s0-.08,0-.12h.13a.58.58,0,0,0,.19,0l1.15.67h.05a.13.13,0,0,0,.11,0,.13.13,0,0,0-.05-.17l-1-.59h0A.66.66,0,0,0,17,4.3a.09.09,0,0,0,0,0h0a.92.92,0,0,0,.59,0,.91.91,0,0,0,.42.56.72.72,0,0,0,.2.09A.91.91,0,0,0,18.19,5.58Z"/><path class="cls-2" d="M5,53a.13.13,0,0,0-.12,0,.59.59,0,0,1-.29.07A.65.65,0,0,1,4,52.71a.14.14,0,0,0-.1-.05.12.12,0,0,0-.1.05.66.66,0,0,1-.55.29h0a.64.64,0,0,0-.15-.13.73.73,0,0,0-.32-.09,1,1,0,0,1-.08-.11.68.68,0,0,1,0-.62.11.11,0,0,0,0-.11.1.1,0,0,0-.09-.06A.64.64,0,0,1,2,51.24a.12.12,0,0,0-.07-.1.11.11,0,0,0-.12,0l-.06,0a.65.65,0,0,1-.67,0,.15.15,0,0,0-.13,0,.11.11,0,0,0-.06.11.65.65,0,0,1-.34.58l-.06,0A.12.12,0,0,0,.4,52a.1.1,0,0,0,0,.11.67.67,0,0,1,.31.53A.61.61,0,0,1,.68,53a.11.11,0,0,0,0,.11.1.1,0,0,0,.09.06.69.69,0,0,1,.45.22.63.63,0,0,0,0,.45.51.51,0,0,0,.1.21l-.06.11a.65.65,0,0,1-.53.31.12.12,0,0,0-.1,0,.13.13,0,0,0,0,.12.68.68,0,0,1,0,.62.88.88,0,0,1-.22.21.11.11,0,0,0-.05.11.12.12,0,0,0,.07.1l.09,0a.67.67,0,0,1,.31.54.11.11,0,0,0,.06.1.14.14,0,0,0,.11,0,.65.65,0,0,1,.62,0l.08.06a.11.11,0,0,0,.12,0h0a.11.11,0,0,0,.06-.1A.68.68,0,0,1,2,55.91a.72.72,0,0,1,.44-.17.16.16,0,0,0,.08-.06.11.11,0,0,0,0-.11.66.66,0,0,1,0-.55A.31.31,0,0,0,2.69,55a.67.67,0,0,0,.28-.3H3a.6.6,0,0,1,.27-.06.66.66,0,0,1,.54.3.11.11,0,0,0,.1.06.14.14,0,0,0,.1-.05.66.66,0,0,1,.55-.29.59.59,0,0,1,.29.07.11.11,0,0,0,.11,0h0a.14.14,0,0,0,0-.11.38.38,0,0,1,0-.1.66.66,0,0,1,.3-.54.12.12,0,0,0,.06-.1.11.11,0,0,0-.06-.1A.64.64,0,0,1,5,53.18a.38.38,0,0,1,0-.1A.13.13,0,0,0,5,53Zm-4-.08a.88.88,0,0,0-.08-.69A1.43,1.43,0,0,0,.78,52a.87.87,0,0,0,.36-.57.89.89,0,0,0,.68,0,1.09,1.09,0,0,0,.09.23.89.89,0,0,0,.55.42.9.9,0,0,0,.07.7l0,0-.06,0a.69.69,0,0,0-.24.24h0A.21.21,0,0,0,2.18,53h0l-.69-1.24a.12.12,0,0,0-.16,0,.11.11,0,0,0,0,.16l.58,1a.39.39,0,0,0-.15,0l-.15,0-.14.11A.9.9,0,0,0,1,52.88Zm.44.83a.45.45,0,0,1,.19-.49l.09,0a.41.41,0,0,1,.31,0,.45.45,0,0,1,.2.27.5.5,0,0,1,0,.21h0l-.15.06a.59.59,0,0,0-.25.27A.43.43,0,0,1,1.44,53.71Zm.87,1.8a.93.93,0,0,0-.57.4.72.72,0,0,0-.09.2A.92.92,0,0,0,1,56a.84.84,0,0,0-.36-.54.75.75,0,0,0,.14-.17.86.86,0,0,0,.1-.7.86.86,0,0,0,.58-.4l0,0a.63.63,0,0,0,.27.1h0a.77.77,0,0,0,0,.26h0l-.64,1a.11.11,0,0,0,0,.16.11.11,0,0,0,.12,0l0,0,.57-.92a.55.55,0,0,0,.18.16.65.65,0,0,0,.23.09A1,1,0,0,0,2.31,55.51Zm.49-1.25a.43.43,0,0,1-.29.52.39.39,0,0,1-.3,0A.47.47,0,0,1,2,54.47.43.43,0,0,1,2.2,54l.09,0A.42.42,0,0,1,2.8,54.26Zm-.32-.56a.76.76,0,0,0,0-.26.47.47,0,0,0-.06-.15.45.45,0,0,1,.19-.24l.09,0a.41.41,0,0,1,.31,0,.45.45,0,0,1,.2.27.43.43,0,0,1-.19.49l-.09,0H2.83A.68.68,0,0,0,2.48,53.7ZM5,53.83a.91.91,0,0,0-.28.58l-.22,0a.86.86,0,0,0-.44.12.75.75,0,0,0-.2.15.92.92,0,0,0-.64-.28l-.22,0a1.1,1.1,0,0,0,0-.18.37.37,0,0,0,0-.11A.52.52,0,0,0,3.08,54a.58.58,0,0,0,.15-.11l1.32,0a.08.08,0,0,0,.06,0,.11.11,0,0,0,.06-.1.11.11,0,0,0-.11-.12l-1.19,0h0a.6.6,0,0,0,0-.4s0,0,0-.06h0A.84.84,0,0,0,3.9,53a.89.89,0,0,0,.64.29l.22,0A.89.89,0,0,0,5,53.83Z"/><path class="cls-2" d="M23.41,52.66a.53.53,0,0,0-.21-.43h0a2.09,2.09,0,0,0,.12-.74c0-1-1.37-1.48-2.72-1.49h-.17a2.24,2.24,0,0,0-2.4,2,.59.59,0,0,0,.38.55,1,1,0,0,0-.46.83.89.89,0,0,0,.09.39.89.89,0,0,0-.09.39,1,1,0,0,0,.49.85,1,1,0,0,0,1,.92,1.1,1.1,0,0,0,.36-.07h0l0,0,0,0,.07,0h0a.41.41,0,0,0,.11.07h0l.1,0h0l.08,0h.35l.08,0h.05l.1,0h0L21,56h0l.07-.06h0l0,0a.86.86,0,0,0,.36.07,1,1,0,0,0,1-.91,1,1,0,0,0,.49-.85,1,1,0,0,0-.08-.39.88.88,0,0,0,.08-.39,1.09,1.09,0,0,0,0-.26A.52.52,0,0,0,23.41,52.66ZM23,51.49a1.76,1.76,0,0,1-.1.64h-.11s0-.06,0-.08A2,2,0,0,0,22,50.51C22.6,50.71,23,51.05,23,51.49Zm-2.57.58a.53.53,0,0,0-.53.53.34.34,0,0,0,0,.1l-.16,0h0l-.1,0a1,1,0,0,0-.61-.31.6.6,0,0,0,.16-.41,1.24,1.24,0,0,1,2.43,0,.62.62,0,0,0,.17.42,1,1,0,0,0-.56.31l-.09,0h0l-.16,0a.34.34,0,0,0,0-.1A.52.52,0,0,0,20.46,52.07Zm.24.53a.25.25,0,0,1-.49,0,.25.25,0,1,1,.49,0Zm-2.39-.55a2,2,0,0,1,2.12-1.77,2,2,0,0,1,2.11,1.78.31.31,0,0,1-.31.3.3.3,0,0,1-.3-.31,1.52,1.52,0,0,0-3,0,.31.31,0,0,1-.62,0Zm4.28,1.85a.72.72,0,0,1,.08.32.69.69,0,0,1-.41.63.15.15,0,0,0-.09.14v0a.69.69,0,0,1-.69.69.59.59,0,0,1-.32-.09.16.16,0,0,0-.15,0l0,0h0l-.05.06,0,0-.05,0h0l-.07,0h0l-.06,0h-.34l-.06,0h0l-.06,0h0l-.07,0h0l0,0h0l0,0-.05-.05v0l0,0a.16.16,0,0,0-.15,0,.72.72,0,0,1-.32.08.69.69,0,0,1-.69-.69h0a.15.15,0,0,0-.09-.14.7.7,0,0,1-.4-.63.72.72,0,0,1,.08-.32.17.17,0,0,0,0-.14.72.72,0,0,1-.08-.32.68.68,0,0,1,.69-.69.69.69,0,0,1,.56.28.13.13,0,0,0,.17,0l.18,0h0L20,53h.06a.54.54,0,0,0,.37.15.55.55,0,0,0,.38-.15h.06l.16,0h0l.17.06a.16.16,0,0,0,.17,0,.7.7,0,0,1,.56-.29.74.74,0,0,1,.45.17.42.42,0,0,0,.13.16.67.67,0,0,1,.11.37.72.72,0,0,1-.08.32A.12.12,0,0,0,22.59,53.9Zm.3-1a.25.25,0,0,1-.25-.24.24.24,0,0,1,.25-.24.24.24,0,0,1,0,.48Zm-1.71.44a1.37,1.37,0,0,1-.66-.1.15.15,0,0,0-.13,0,1.27,1.27,0,0,1-.66.09.15.15,0,0,0,0,.29H20c0,.16.24.27.5.27s.47-.11.51-.26h.24a.15.15,0,0,0,.13-.16A.14.14,0,0,0,21.18,53.34Zm-.73.26-.16,0a.76.76,0,0,0,.16-.06l.17.06ZM20,51.85a.22.22,0,1,1-.43,0,.21.21,0,0,1,.21-.21A.22.22,0,0,1,20,51.85Zm1.28,0a.21.21,0,0,1-.42,0,.21.21,0,1,1,.42,0Z"/><path class="cls-2" d="M41.41,39.66a.53.53,0,0,0-.21-.43h0a2.09,2.09,0,0,0,.12-.74c0-1-1.37-1.48-2.72-1.49h-.17a2.24,2.24,0,0,0-2.4,2,.59.59,0,0,0,.38.55,1,1,0,0,0-.46.83.89.89,0,0,0,.09.39.89.89,0,0,0-.09.39,1,1,0,0,0,.49.85,1,1,0,0,0,1,.92,1.1,1.1,0,0,0,.36-.07h0l0,0,0,0,.07,0h0a.41.41,0,0,0,.11.07h0l.1,0h0l.08,0h.35l.08,0h0l.1,0h0L39,43h0l.07-.06h0l0,0a.86.86,0,0,0,.36.07,1,1,0,0,0,1-.91,1,1,0,0,0,.49-.85,1,1,0,0,0-.08-.39.88.88,0,0,0,.08-.39,1.09,1.09,0,0,0,0-.26A.52.52,0,0,0,41.41,39.66ZM41,38.49a1.76,1.76,0,0,1-.1.64h-.11s0-.06,0-.08A2,2,0,0,0,40,37.51C40.6,37.71,41,38.05,41,38.49Zm-2.57.58a.53.53,0,0,0-.53.53.34.34,0,0,0,0,.1l-.16,0h0l-.1,0a1,1,0,0,0-.61-.31.6.6,0,0,0,.16-.41,1.24,1.24,0,0,1,2.43,0,.62.62,0,0,0,.17.42,1,1,0,0,0-.56.31l-.09,0h0l-.16,0a.34.34,0,0,0,0-.1A.52.52,0,0,0,38.46,39.07Zm.24.53a.25.25,0,0,1-.49,0,.25.25,0,1,1,.49,0Zm-2.39-.55a2.15,2.15,0,0,1,4.23,0,.31.31,0,0,1-.31.3.3.3,0,0,1-.3-.31,1.52,1.52,0,0,0-3,0,.31.31,0,0,1-.62,0Zm4.28,1.85a.72.72,0,0,1,.08.32.69.69,0,0,1-.41.63.15.15,0,0,0-.09.14v0a.69.69,0,0,1-.69.69.59.59,0,0,1-.32-.09.16.16,0,0,0-.15,0l0,0h0l-.05.06,0,0,0,0h0l-.07,0h0l-.06,0h-.34l-.06,0h0l-.06,0h0l-.07,0h0l-.05,0h0l0,0s0,0,0-.05v0l0,0a.16.16,0,0,0-.15,0,.72.72,0,0,1-.32.08.69.69,0,0,1-.69-.69h0a.15.15,0,0,0-.09-.14.7.7,0,0,1-.4-.63.72.72,0,0,1,.08-.32.17.17,0,0,0,0-.14.72.72,0,0,1-.08-.32.68.68,0,0,1,.69-.69.69.69,0,0,1,.56.28.13.13,0,0,0,.17,0l.18,0h0L38,40h.06a.54.54,0,0,0,.37.15.55.55,0,0,0,.38-.15h.06l.16,0h0l.17.06a.16.16,0,0,0,.17,0,.7.7,0,0,1,.56-.29.74.74,0,0,1,.45.17.42.42,0,0,0,.13.16.67.67,0,0,1,.11.37.72.72,0,0,1-.08.32A.12.12,0,0,0,40.59,40.9Zm.3-1a.25.25,0,0,1-.25-.24.24.24,0,0,1,.25-.24.24.24,0,1,1,0,.48Zm-1.71.44a1.37,1.37,0,0,1-.66-.1.15.15,0,0,0-.13,0,1.27,1.27,0,0,1-.66.09.15.15,0,0,0,0,.29H38c0,.16.24.27.5.27s.47-.11.51-.26h.24a.15.15,0,0,0,.13-.16A.14.14,0,0,0,39.18,40.34Zm-.73.26-.16,0a.76.76,0,0,0,.16-.06l.17.06ZM38,38.85a.22.22,0,1,1-.43,0,.21.21,0,0,1,.21-.21A.22.22,0,0,1,38,38.85Zm1.28,0a.21.21,0,1,1-.42,0,.21.21,0,1,1,.42,0Z"/><path class="cls-2" d="M13.46,34.16,9.52,35.7a1.62,1.62,0,0,0-.53.6l1.3,3.34c.68,1.09,3.11,1.51,3.11,1.51l3.68,9.47a.48.48,0,0,0,.61.27.46.46,0,0,0,.27-.61l-3.68-9.47s1.51-2,1.27-3.22l-1.3-3.34A1.57,1.57,0,0,0,13.46,34.16ZM14.69,38a1.64,1.64,0,1,1-3,1.22l-1.13-2.9.44-.17.86,2.22a.47.47,0,0,0,.88-.34l-.87-2.22.44-.17.87,2.22a.47.47,0,0,0,.87-.35l-.86-2.21.44-.18ZM9.24,41.86A3.46,3.46,0,0,0,8,37.29l.53-.2a.47.47,0,0,0-.34-.88l-.66.26-1-2.63a.46.46,0,0,0-.61-.27L2,35.1a.48.48,0,0,0-.27.61l1,2.63-.66.26a.47.47,0,0,0-.27.61.47.47,0,0,0,.61.26l.46-.17A3.35,3.35,0,0,0,3,41.48,3.47,3.47,0,0,0,5,43.5a6.12,6.12,0,1,0,4.21-1.64Zm-6.5-6,3.07-1.19.85,2.19L3.59,38ZM10.82,52.9a5.18,5.18,0,0,1-4.61-9.2.46.46,0,0,0,.25-.41A.47.47,0,0,0,6,42.82a2.32,2.32,0,0,1-1.43-.42,2.57,2.57,0,0,1-.64-3.52l2.67-1a2.52,2.52,0,0,1,1.13,4.3l-.07.08a.49.49,0,0,0,0,.52.47.47,0,0,0,.48.21,5.18,5.18,0,0,1,2.69,9.95ZM4.07,40.06a.47.47,0,0,1,.26-.61.47.47,0,0,1,.61.27.47.47,0,1,1-.87.34Zm2.33-.91a.47.47,0,1,1,.61.27A.48.48,0,0,1,6.4,39.15Zm.22,2.72a1.87,1.87,0,0,1-1.85-.18A.47.47,0,0,1,5.35,41a1,1,0,0,0,1,0c.55-.22.66-.54.68-.67a.46.46,0,0,1,.54-.38.47.47,0,0,1,.39.54,1.88,1.88,0,0,1-1.24,1.38h0Zm2.87,5.42a.71.71,0,1,1-.92-.4A.7.7,0,0,1,9.49,47.29Zm-1-2.63a.7.7,0,1,1-.91-.4A.7.7,0,0,1,8.46,44.66Z"/><path class="cls-2" d="M38.13,32.88l-.29-6.14,2,1.64a.48.48,0,0,0,.51.06.48.48,0,0,0,.27-.45l-.3-6.29,1.82,1.49a.47.47,0,0,0,.52,0,.46.46,0,0,0,.26-.44l-.4-8.35A.49.49,0,0,0,42,14L33.7,15.25a.48.48,0,0,0-.39.35.46.46,0,0,0,.16.49l1.83,1.49-6.23,1a.48.48,0,0,0-.39.35.5.5,0,0,0,.16.5L30.76,21l-6.16.95a.5.5,0,0,0-.41.37.51.51,0,0,0,.17.53l4.82,3.94L27,29.44a.5.5,0,0,0,.08.7L29.36,32a.49.49,0,0,0,.7-.07l2.21-2.7,5,4.12h0a.52.52,0,0,0,.72-.08A.51.51,0,0,0,38.13,32.88ZM29.6,31l-1.54-1.27L30,27.37l1.55,1.26Zm3.08-2.63-2.35-1.93-4.55-3.72,6.16-1a.49.49,0,0,0,.41-.36.5.5,0,0,0-.16-.53L30.3,19.29l6.23-1a.47.47,0,0,0,.38-.35.48.48,0,0,0-.15-.49L34.93,16l6.7-1L42,21.74l-1.83-1.49a.48.48,0,0,0-.78.39l.3,6.29-1.88-1.54a.52.52,0,0,0-.55-.06.51.51,0,0,0-.28.48L37.23,32Zm2.7-.16a.75.75,0,0,1-1.16-.95.74.74,0,0,1,1.05-.1A.75.75,0,0,1,35.38,28.16ZM32,24.78a.75.75,0,0,1-1.05.1.75.75,0,1,1,.94-1.16A.76.76,0,0,1,32,24.78Zm5.78-1.17a.75.75,0,0,1-1.16-.95.74.74,0,0,1,1.05-.1A.75.75,0,0,1,37.81,23.61Zm-2.58-2.75a.75.75,0,1,1-.11-1.06A.76.76,0,0,1,35.23,20.86ZM40.16,18a.75.75,0,1,1-.1-1.05A.75.75,0,0,1,40.16,18Z"/><path class="cls-2" d="M25,32.69a.25.25,0,0,1-.34-.12.26.26,0,0,1,.13-.34.25.25,0,1,1,.21.46ZM23.82,31a.25.25,0,0,0-.34-.12.25.25,0,1,0,.34.12Zm0,0a.25.25,0,0,0-.34-.12.25.25,0,1,0,.34.12ZM22,30.62a.25.25,0,1,0-.12.34A.25.25,0,0,0,22,30.62Zm-1.7.79a.25.25,0,1,0-.12.34A.25.25,0,0,0,20.28,31.41Zm1.7-.79a.25.25,0,1,0-.12.34A.25.25,0,0,0,22,30.62Zm1.84.35a.25.25,0,0,0-.34-.12.25.25,0,1,0,.34.12Zm1.51,3.23a.25.25,0,0,0-.34-.12.25.25,0,1,0,.34.12Zm-.91,1.64a.25.25,0,1,0-.12.34A.26.26,0,0,0,24.42,35.84Zm-1.7.79a.25.25,0,1,0-.12.34A.25.25,0,0,0,22.72,36.63Zm-2,.68,0,0a1.09,1.09,0,0,1-1.62-.58,2,2,0,0,1-.18-1,.63.63,0,0,1-.36-.32.6.6,0,0,1,0-.49,1.91,1.91,0,0,1-.67-.79,1.09,1.09,0,0,1,.58-1.62l.06,0a3.84,3.84,0,1,1,2.25,4.81ZM18.8,34.54l.94-.44.08,0a1.48,1.48,0,0,0-.17-.92.83.83,0,0,0-1-.38c-.58.25-.73.6-.47,1.15a1.64,1.64,0,0,0,.58.67A.18.18,0,0,1,18.8,34.54Zm1.33.39a.23.23,0,0,0,.12-.32.36.36,0,0,0-.35-.18l-.95.44a.39.39,0,0,0-.09.39.24.24,0,0,0,.33.11Zm.47,0a2,2,0,0,1,.67.79v0a2.23,2.23,0,0,0,1.77,0,2.19,2.19,0,1,0-1.86-4A2.15,2.15,0,0,0,20,33.08h0l0,0a1.91,1.91,0,0,1,.18,1,.57.57,0,0,1,.36.32A.6.6,0,0,1,20.6,34.94Zm0,2a.84.84,0,0,0,.37-1,1.52,1.52,0,0,0-.6-.72l-.07,0-.95.44s-.05,0-.08,0a1.64,1.64,0,0,0,.14.87C19.66,37.15,20,37.26,20.59,37Zm.54.07a3.45,3.45,0,0,0,2.46-.17,3.47,3.47,0,1,0-4.66-4.51,1,1,0,0,1,.85.34h0a2.56,2.56,0,1,1,3.43,3.35,2.51,2.51,0,0,1-1.8.14A.94.94,0,0,1,21.13,37.05Z"/><path class="cls-2" d="M10.61,15.78a.25.25,0,0,1-.34-.12.25.25,0,1,1,.46-.22A.25.25,0,0,1,10.61,15.78ZM9.46,14.06a.26.26,0,1,0-.13.34A.25.25,0,0,0,9.46,14.06Zm0,0a.26.26,0,1,0-.13.34A.25.25,0,0,0,9.46,14.06Zm-1.84-.35a.25.25,0,1,0-.12.34A.26.26,0,0,0,7.62,13.71Zm-1.7.79a.25.25,0,1,0-.12.34A.25.25,0,0,0,5.92,14.5Zm1.7-.79a.25.25,0,1,0-.12.34A.26.26,0,0,0,7.62,13.71Zm1.84.35a.26.26,0,1,0-.13.34A.25.25,0,0,0,9.46,14.06ZM11,17.29a.26.26,0,1,0-.13.34A.25.25,0,0,0,11,17.29Zm-.91,1.64a.25.25,0,1,0-.12.34A.26.26,0,0,0,10.06,18.93Zm-1.7.79a.25.25,0,1,0-.12.34A.26.26,0,0,0,8.36,19.72Zm-2,.68-.06,0a1.08,1.08,0,0,1-1.61-.58,2,2,0,0,1-.18-1,.63.63,0,0,1-.36-.32.6.6,0,0,1,0-.49,2.06,2.06,0,0,1-.67-.79,1.1,1.1,0,0,1,.59-1.62l.06,0A3.84,3.84,0,1,1,6.38,20.4ZM4.44,17.63l.94-.44.08,0a1.55,1.55,0,0,0-.17-.92.83.83,0,0,0-1-.38c-.58.25-.73.6-.47,1.15a1.69,1.69,0,0,0,.57.67ZM5.77,18a.23.23,0,0,0,.12-.32.36.36,0,0,0-.35-.18l-1,.44a.37.37,0,0,0-.09.39.23.23,0,0,0,.32.11Zm.47,0a2,2,0,0,1,.67.79v0a2.23,2.23,0,0,0,1.77,0,2.19,2.19,0,0,0-1.86-4,2.15,2.15,0,0,0-1.16,1.33h0l0,0a2,2,0,0,1,.18,1,.62.62,0,0,1,.38.81Zm0,2a.84.84,0,0,0,.37-1,1.58,1.58,0,0,0-.6-.72l-.08,0L5,18.79l-.08,0a1.64,1.64,0,0,0,.14.87C5.3,20.24,5.66,20.35,6.23,20.07Zm.53.07a3.47,3.47,0,1,0-2.19-4.68,1,1,0,0,1,.85.33h0A2.61,2.61,0,0,1,6.67,14.5a2.56,2.56,0,1,1,2.17,4.64,2.48,2.48,0,0,1-1.79.14A.92.92,0,0,1,6.76,20.14Z"/><path class="cls-2" d="M55,49.7a.26.26,0,0,1-.34-.12.26.26,0,0,1,.12-.35.26.26,0,0,1,.34.13A.26.26,0,0,1,55,49.7ZM53.85,48a.26.26,0,0,0-.34-.12.25.25,0,0,0-.12.34.26.26,0,0,0,.34.13A.26.26,0,0,0,53.85,48Zm0,0a.26.26,0,0,0-.34-.12.25.25,0,0,0-.12.34.26.26,0,0,0,.34.13A.26.26,0,0,0,53.85,48ZM52,47.62a.25.25,0,0,0-.34-.12.26.26,0,0,0-.12.34.25.25,0,0,0,.46-.22Zm-1.7.8a.26.26,0,0,0-.34-.13.26.26,0,0,0-.12.34.26.26,0,0,0,.34.13A.25.25,0,0,0,50.31,48.42Zm1.7-.8a.25.25,0,0,0-.34-.12.26.26,0,0,0-.12.34.25.25,0,0,0,.46-.22Zm1.84.35a.26.26,0,0,0-.34-.12.25.25,0,0,0-.12.34.26.26,0,0,0,.34.13A.26.26,0,0,0,53.85,48Zm1.51,3.24a.25.25,0,1,0-.12.34A.26.26,0,0,0,55.36,51.21Zm-.91,1.63a.25.25,0,0,0-.34-.12.26.26,0,0,0-.12.34.25.25,0,0,0,.46-.22Zm-1.7.8a.26.26,0,0,0-.34-.13.26.26,0,0,0-.12.34.25.25,0,1,0,.46-.21Zm-2,.68-.06,0a1.09,1.09,0,0,1-1.61-.58,1.86,1.86,0,0,1-.18-1,.61.61,0,0,1-.37-.32.64.64,0,0,1,0-.49,1.85,1.85,0,0,1-.67-.79,1.08,1.08,0,0,1,.58-1.61l.06,0a3.84,3.84,0,1,1,2.26,4.82Zm-2-2.77,1-.45.08,0a1.68,1.68,0,0,0-.17-.93.84.84,0,0,0-1-.37c-.58.25-.72.6-.47,1.15a1.62,1.62,0,0,0,.58.66Zm1.33.38a.24.24,0,0,0,.13-.32.37.37,0,0,0-.36-.17l-.94.44a.38.38,0,0,0-.1.38.24.24,0,0,0,.33.12Zm.47,0a1.94,1.94,0,0,1,.67.8v0a2.15,2.15,0,0,0,1.77,0,2.19,2.19,0,1,0-3-2.63h0s0,0,0,0a1.84,1.84,0,0,1,.18,1,.6.6,0,0,1,.38.8Zm0,2A.82.82,0,0,0,51,53a1.6,1.6,0,0,0-.6-.73l-.07.05-1,.44-.07,0a1.53,1.53,0,0,0,.14.86C49.69,54.15,50.06,54.27,50.62,54Zm.54.08a3.47,3.47,0,1,0-.48-6.46A3.41,3.41,0,0,0,49,49.38a.92.92,0,0,1,.84.33h0a2.51,2.51,0,0,1,1.26-1.29,2.56,2.56,0,0,1,2.17,4.64,2.62,2.62,0,0,1-1.8.14A1,1,0,0,1,51.16,54.06Z"/><path class="cls-2" d="M19,9.7a.26.26,0,0,1-.34-.12.26.26,0,0,1,.12-.35.26.26,0,0,1,.34.13A.26.26,0,0,1,19,9.7ZM17.85,8a.26.26,0,0,0-.34-.12.25.25,0,0,0-.12.34.26.26,0,0,0,.34.13A.26.26,0,0,0,17.85,8Zm0,0a.26.26,0,0,0-.34-.12.25.25,0,0,0-.12.34.26.26,0,0,0,.34.13A.26.26,0,0,0,17.85,8ZM16,7.62a.25.25,0,0,0-.34-.12.26.26,0,0,0-.12.34A.25.25,0,1,0,16,7.62Zm-1.7.8A.26.26,0,0,0,14,8.29a.26.26,0,0,0-.12.34.26.26,0,0,0,.34.13A.25.25,0,0,0,14.31,8.42Zm1.7-.8a.25.25,0,0,0-.34-.12.26.26,0,0,0-.12.34A.25.25,0,1,0,16,7.62ZM17.85,8a.26.26,0,0,0-.34-.12.25.25,0,0,0-.12.34.26.26,0,0,0,.34.13A.26.26,0,0,0,17.85,8Zm1.51,3.24a.25.25,0,1,0-.12.34A.26.26,0,0,0,19.36,11.21Zm-.91,1.63a.25.25,0,0,0-.34-.12.26.26,0,0,0-.12.34.25.25,0,1,0,.46-.22Zm-1.7.8a.26.26,0,0,0-.34-.13.26.26,0,0,0-.12.34.25.25,0,1,0,.46-.21Zm-2,.68-.06,0a1.09,1.09,0,0,1-1.61-.58,1.86,1.86,0,0,1-.18-1,.61.61,0,0,1-.37-.32.64.64,0,0,1,0-.49,1.85,1.85,0,0,1-.67-.79,1.08,1.08,0,0,1,.58-1.61l.06,0a3.84,3.84,0,1,1,2.26,4.82Zm-1.95-2.77.95-.45.08,0a1.68,1.68,0,0,0-.17-.93.84.84,0,0,0-1-.37c-.58.25-.72.6-.47,1.15a1.62,1.62,0,0,0,.58.66Zm1.33.38a.24.24,0,0,0,.13-.32.37.37,0,0,0-.36-.17l-.94.44a.38.38,0,0,0-.1.38.24.24,0,0,0,.33.12Zm.47,0a1.94,1.94,0,0,1,.67.8v0a2.15,2.15,0,0,0,1.77,0,2.19,2.19,0,1,0-3-2.63h0v0a1.84,1.84,0,0,1,.18,1,.6.6,0,0,1,.38.8Zm0,2A.82.82,0,0,0,15,13a1.6,1.6,0,0,0-.6-.73l-.07,0-1,.44-.07,0a1.53,1.53,0,0,0,.14.86C13.69,14.15,14.06,14.27,14.62,14Zm.54.08a3.47,3.47,0,1,0-.48-6.46A3.41,3.41,0,0,0,13,9.38a.92.92,0,0,1,.84.33h0a2.51,2.51,0,0,1,1.26-1.29,2.56,2.56,0,0,1,2.17,4.64,2.62,2.62,0,0,1-1.8.14A1,1,0,0,1,15.16,14.06Z"/><path class="cls-2" d="M38.57,3.54a.26.26,0,0,1-.34-.13.25.25,0,1,1,.46-.22A.26.26,0,0,1,38.57,3.54ZM37.42,1.81a.26.26,0,1,0-.13.34A.25.25,0,0,0,37.42,1.81Zm0,0a.26.26,0,1,0-.13.34A.25.25,0,0,0,37.42,1.81Zm-1.84-.35a.26.26,0,0,0-.34-.13.26.26,0,0,0-.12.35.26.26,0,0,0,.34.12A.25.25,0,0,0,35.58,1.46Zm-1.7.79a.26.26,0,0,0-.34-.12.25.25,0,1,0,.34.12Zm1.7-.79a.26.26,0,0,0-.34-.13.26.26,0,0,0-.12.35.26.26,0,0,0,.34.12A.25.25,0,0,0,35.58,1.46Zm1.84.35a.26.26,0,1,0-.13.34A.25.25,0,0,0,37.42,1.81ZM38.93,5a.26.26,0,0,0-.34-.12.25.25,0,1,0,.34.12ZM38,6.68A.25.25,0,1,0,37.9,7,.26.26,0,0,0,38,6.68Zm-1.7.79A.26.26,0,0,0,36,7.35a.25.25,0,1,0,.22.46A.26.26,0,0,0,36.32,7.47Zm-2,.68-.05,0a1.1,1.1,0,0,1-1.62-.59,2,2,0,0,1-.18-1,.62.62,0,0,1-.38-.81A2,2,0,0,1,31.44,5,1.1,1.1,0,0,1,32,3.36l.06,0a3.84,3.84,0,1,1,2.25,4.81ZM32.4,5.38l.94-.44.08,0A1.48,1.48,0,0,0,33.25,4a.83.83,0,0,0-1-.38c-.58.25-.73.61-.47,1.15a1.69,1.69,0,0,0,.57.67Zm1.33.39a.23.23,0,0,0,.12-.32.36.36,0,0,0-.35-.18l-1,.45a.37.37,0,0,0-.09.38.24.24,0,0,0,.33.11Zm.47,0a2,2,0,0,1,.67.79v0a2.19,2.19,0,1,0-1.25-2.68h0l0,0a2,2,0,0,1,.18,1,.62.62,0,0,1,.38.81Zm0,2a.84.84,0,0,0,.37-1,1.58,1.58,0,0,0-.6-.72l-.07,0-1,.44-.08,0a1.64,1.64,0,0,0,.14.87C33.26,8,33.62,8.1,34.19,7.82Zm.54.07a3.45,3.45,0,0,0,2.46-.17,3.47,3.47,0,1,0-4.66-4.51,1,1,0,0,1,.85.34h0a2.56,2.56,0,1,1,3.43,3.35A2.51,2.51,0,0,1,35,7,.94.94,0,0,1,34.73,7.89Z"/><path class="cls-2" d="M55.53,10.69a1,1,0,0,0-.73-1.06L50.51,8.57a.84.84,0,0,0-1.06.61.88.88,0,0,0,.36.88l-.64,3.16h-1.1A2,2,0,0,0,46,15.4a2.23,2.23,0,0,0,.79,1.53,2.59,2.59,0,0,0,1.06.56,2.4,2.4,0,0,0,.6.07h3.45a2.08,2.08,0,0,0,2-1.48l1-4.76A.81.81,0,0,0,55.53,10.69Zm-6.12,3a.24.24,0,0,0,.24-.18l.65-3.26,4,1-.66,3.27a2.35,2.35,0,0,0-2.74,1.78,2.31,2.31,0,0,0,0,.74H48.77a2.17,2.17,0,0,0,.61-1.13,2.48,2.48,0,0,0-.71-2.22ZM47.1,16.58a1.81,1.81,0,0,1-.62-1.18,1.56,1.56,0,0,1,1.44-1.67,2,2,0,0,1,.95,2.08A1.73,1.73,0,0,1,48,17,2,2,0,0,1,47.1,16.58Zm4.73.48h-.4a2.08,2.08,0,0,1,0-.61A1.87,1.87,0,0,1,53.59,15l-.19.91A1.58,1.58,0,0,1,51.83,17.06Zm2.74-6.23-4.3-1.07A.4.4,0,0,1,50,9.31.36.36,0,0,1,50.41,9l4.3,1.07a.4.4,0,0,1,.31.45A.36.36,0,0,1,54.57,10.83Z"/><path class="cls-2" d="M30.43,43.92a.93.93,0,0,0,.19-1.26L28.18,39a.84.84,0,0,0-1.2-.27.93.93,0,0,0-.33.89L24,41.47l-.81-.74a2,2,0,0,0-3,.17,2.26,2.26,0,0,0-.45,1.66,2.56,2.56,0,0,0,.4,1.14,2.8,2.8,0,0,0,.39.46l2.54,2.33a2.07,2.07,0,0,0,2.5.3l3.94-2.86A.78.78,0,0,0,30.43,43.92ZM23.89,42a.22.22,0,0,0,.29,0l2.7-2,2.29,3.48-2.7,2a2.3,2.3,0,0,0-3.75,0L21.14,44a2.09,2.09,0,0,0,1.22-.42,2.48,2.48,0,0,0,1-2.11Zm-3.65.54a1.81,1.81,0,0,1,.35-1.29A1.56,1.56,0,0,1,22.78,41a2,2,0,0,1-.71,2.18,1.79,1.79,0,0,1-1.49.27A2,2,0,0,1,20.24,42.54ZM23.4,46.1l-.3-.27a2,2,0,0,1,.43-.43,1.87,1.87,0,0,1,2.54.39l-.75.55A1.6,1.6,0,0,1,23.4,46.1Zm6.23-2.73-2.43-3.7a.4.4,0,0,1,.07-.54.37.37,0,0,1,.52.11l2.43,3.7a.41.41,0,0,1-.07.55A.38.38,0,0,1,29.63,43.37Z"/><path class="cls-2" d="M23.76,18.49A.94.94,0,0,0,23,17.43l-4.3-1.07a.85.85,0,0,0-1.06.62.87.87,0,0,0,.36.87L17.4,21H16.3a2,2,0,0,0-2.1,2.17A2.25,2.25,0,0,0,15,24.72a2.37,2.37,0,0,0,1.06.56,2.47,2.47,0,0,0,.6.08H20.1a2.07,2.07,0,0,0,2-1.48l1-4.76A.79.79,0,0,0,23.76,18.49Zm-6.12,3a.24.24,0,0,0,.24-.18l.65-3.27,4,1-.65,3.26a2.37,2.37,0,0,0-2.75,1.79,2.29,2.29,0,0,0,0,.74H17a2.09,2.09,0,0,0,.61-1.13,2.49,2.49,0,0,0-.71-2.22Zm-2.31,2.86a1.71,1.71,0,0,1-.61-1.18,1.55,1.55,0,0,1,1.43-1.67,2,2,0,0,1,1,2.09,1.76,1.76,0,0,1-.9,1.21A1.87,1.87,0,0,1,15.33,24.37Zm4.73.49h-.39a1.78,1.78,0,0,1,0-.61,1.88,1.88,0,0,1,2.14-1.43l-.18.91A1.62,1.62,0,0,1,20.06,24.86Zm2.74-6.24-4.3-1.07a.4.4,0,0,1-.31-.45.35.35,0,0,1,.45-.26l4.3,1.07a.4.4,0,0,1,.31.45A.35.35,0,0,1,22.8,18.62Z"/><path class="cls-2" d="M54,34a.94.94,0,0,0-1.18-.49l-4.19,1.43A.85.85,0,0,0,48,36a.92.92,0,0,0,.78.55l1.18,3-.92.6a2,2,0,0,0-.59,3A2.27,2.27,0,0,0,50,44a2.56,2.56,0,0,0,1.2-.1,2.73,2.73,0,0,0,.54-.27l2.9-1.87a2.07,2.07,0,0,0,.91-2.35l-1.77-4.52A.8.8,0,0,0,54,34Zm-3.5,5.86a.23.23,0,0,0,.1-.28l-1.22-3.1,3.94-1.34,1.22,3.1a2.36,2.36,0,0,0-1.34,3,2.25,2.25,0,0,0,.38.63L51.74,43a2.16,2.16,0,0,0-.1-1.28,2.49,2.49,0,0,0-1.8-1.49Zm-.39,3.67a1.84,1.84,0,0,1-1.16-.67,1.56,1.56,0,0,1,.31-2.18,2,2,0,0,1,1.92,1.24,1.75,1.75,0,0,1-.1,1.51A2,2,0,0,1,50.07,43.53Zm4.24-2.17-.33.22a1.81,1.81,0,0,1,.7-2.88l.34.86A1.6,1.6,0,0,1,54.31,41.36Zm-1.08-6.72L49,36.07a.39.39,0,0,1-.51-.21.36.36,0,0,1,.24-.46L53,34a.41.41,0,0,1,.51.21A.37.37,0,0,1,53.23,34.64Z"/></g></g></svg>