<svg xmlns="http://www.w3.org/2000/svg" viewBox="0 0 285 285"><defs><style>.cls-1{fill:lightgrey;}.cls-2{fill:none;}</style></defs><title>xmas-doodle1</title><g id="Layer_2" data-name="Layer 2"><g id="Layer_1-2" data-name="Layer 1"><path class="cls-1" d="M37.32,28.87a1,1,0,0,0-.08-.14,17.61,17.61,0,0,0-14.37-8.3l-.74-4.31L22,15.19l-.1-.58a3,3,0,0,0-2.49-2.56,3,3,0,0,0-3.44,3.47l.12.69-.83,1.09L16,21.61A17.58,17.58,0,0,0,5,41a17.29,17.29,0,0,0,2.31,6.14,1,1,0,0,0,.08.14,17.54,17.54,0,0,0,29.9-18.36ZM6.4,40.7a16.09,16.09,0,0,1-.22-2.48,17.08,17.08,0,0,0,15.28-4.86,15.2,15.2,0,0,1,15.39-3.83,16.31,16.31,0,0,1,2.07,5.6,17.29,17.29,0,0,1,.22,2.46,17.2,17.2,0,0,0-15.28,4.88A15.21,15.21,0,0,1,8.47,46.3,16.31,16.31,0,0,1,6.4,40.7ZM18.74,14.07a1,1,0,0,1,1.15.81l.11.63-2,.33-.11-.62A1,1,0,0,1,18.74,14.07Zm-1,5.89-.34-2,3-.5.33,2Zm2.15,1.69a16.5,16.5,0,0,1,15.18,5.4A17.22,17.22,0,0,0,20,32,15.18,15.18,0,0,1,6.26,36.21,16.52,16.52,0,0,1,19.87,21.65Zm5.58,32.53a16.51,16.51,0,0,1-15.18-5.4,17.19,17.19,0,0,0,15-4.91,15.13,15.13,0,0,1,13.77-4.25A16.52,16.52,0,0,1,25.45,54.18Z"/><path class="cls-1" d="M133.81,104.72l-3.31.58a5.09,5.09,0,0,0-.33-6.62,5.57,5.57,0,0,0-5-1.59,5.68,5.68,0,0,0-2.75,1.31c-1.7,1.49-3,6.24-3.46,8.38-1.2-1.84-4-5.86-6.13-6.67a5.72,5.72,0,0,0-3-.29,5.53,5.53,0,0,0-4.16,3.22,5.08,5.08,0,0,0,2,6.33l-3.3.59a1,1,0,0,0-.81,1.16l1.4,7.87a1,1,0,0,0,1.16.81h0l3.14,17.73a1,1,0,0,0,1.16.81l9.68-1.72,7.23-1.28,9.67-1.72a1,1,0,0,0,.81-1.16l-3.14-17.72,1-.18a1,1,0,0,0,.81-1.16L135,105.53A1,1,0,0,0,133.81,104.72Zm.41,8-.52.09-8.34,1.48-1-5.91,8.86-1.57Zm-11.88-4,1,5.91-4.92.87-1-5.9Zm1.3-9.5a3.61,3.61,0,0,1,1.75-.86,3.5,3.5,0,0,1,3,6c-.3.28-1.42,1-5.31,1.68-.78.14-1.51.25-2.1.33C121.59,103.74,122.66,100.18,123.64,99.28Zm-16.27,4a3.49,3.49,0,0,1,2.64-2.13,3.54,3.54,0,0,1,1.93.21c1.24.51,3.46,3.48,5,5.82-.58.13-1.31.29-2.1.42h0c-3.87.69-5.17.41-5.54.26A3.52,3.52,0,0,1,107.37,103.28Zm-1.77,8.47,8.86-1.57,1.05,5.91-8.34,1.48-.52.09Zm2.38,7.7,7.88-1.39,3,16.73-7.88,1.4Zm12.82,15-3-16.74,4.92-.88,3,16.74Zm15.75-2.8-7.87,1.4-3-16.74,7.87-1.4Z"/><path class="cls-1" d="M50,131.49a1,1,0,0,0-.71-.76,5.43,5.43,0,0,1-2.22-1.21,5.5,5.5,0,0,1-1.74-5,1,1,0,0,0-.32-.89,1,1,0,0,0-.92-.23,5.57,5.57,0,0,1-5.08-1.24,1.36,1.36,0,0,1-.12-.12h0a5.91,5.91,0,0,0-.23-1.61,5.4,5.4,0,0,0-1.51-2.36,5.17,5.17,0,0,1,.12-1.17,5.48,5.48,0,0,1,3.41-4,1,1,0,0,0,.62-.73,1,1,0,0,0-.27-.91,5.48,5.48,0,0,1-.29-7.41,1,1,0,0,0-.69-1.64c-.18,0-.37,0-.62-.09a5.52,5.52,0,0,1-4.12-3.87,1.16,1.16,0,0,0-.83-.72,1,1,0,0,0-1,.33,5.54,5.54,0,0,1-5.41,1.81,3.47,3.47,0,0,1-.55-.16,1,1,0,0,0-1.3,1.22,5.77,5.77,0,0,1-1,5.09A4.84,4.84,0,0,1,23,107.44a1,1,0,0,0-.63.72,1,1,0,0,0,.27.91A5.55,5.55,0,0,1,24.19,113,5.77,5.77,0,0,0,21,117.52a5.3,5.3,0,0,1-.95.4,5.57,5.57,0,0,1-5.12-1,1,1,0,0,0-.93-.19,1,1,0,0,0-.67.67,5.51,5.51,0,0,1-3.69,3.72,5.39,5.39,0,0,1-2.52.15,1,1,0,0,0-1,.38,1,1,0,0,0-.11,1,4.68,4.68,0,0,1,.32.81,5.49,5.49,0,0,1-1,5.13,1,1,0,0,0-.19.93,1,1,0,0,0,.67.67,5.49,5.49,0,0,1,3.72,3.68,5.18,5.18,0,0,1,.18.84,1,1,0,0,0,.66.81l.12,0a1,1,0,0,0,.9-.26,5.57,5.57,0,0,1,3.62-1.52,6.36,6.36,0,0,1,3.78,1.36,1,1,0,0,0,.85.13,1,1,0,0,0,.67-.68,5.43,5.43,0,0,1,3.1-3.48,5.8,5.8,0,0,0,1.15.4,5.53,5.53,0,0,0,3.46-.41h0a5.62,5.62,0,0,1,2,1.14,5.47,5.47,0,0,1,1.73,4.94,1,1,0,0,0,.32.9,1,1,0,0,0,.92.23A5.59,5.59,0,0,1,38,139.54a5.43,5.43,0,0,1,1.43,2.08,1,1,0,0,0,.72.62l.11,0a1,1,0,0,0,.94-.45,5.9,5.9,0,0,1,.52-.69,5.55,5.55,0,0,1,4.94-1.74,1,1,0,0,0,1.12-1.23,5.52,5.52,0,0,1,1.25-5.09,5.23,5.23,0,0,1,.63-.59A1,1,0,0,0,50,131.49ZM24.38,108.6a7.48,7.48,0,0,0,3.44-4.82,7.82,7.82,0,0,0,.15-2,7.48,7.48,0,0,0,5.49-1.56,7.52,7.52,0,0,0,4.37,3.68,7.52,7.52,0,0,0,.44,7.74,7.52,7.52,0,0,0-3.44,4.83c0,.14,0,.29-.06.44a4,4,0,0,0-.57-.16,5.34,5.34,0,0,0-2.89.18h0a5.27,5.27,0,0,0-.16-.79c0-.08-.07-.15-.1-.23s0,0,0,0l2.52-11.71a1,1,0,1,0-2-.42l-2.14,9.9a5,5,0,0,0-1.08-.74,5.17,5.17,0,0,0-1.25-.44,5.51,5.51,0,0,0-1.51-.09A7.48,7.48,0,0,0,24.38,108.6Zm-1.12,7.89a3.63,3.63,0,0,1,4-2,3.07,3.07,0,0,1,.77.27,3.33,3.33,0,0,1,1.72,2,3.79,3.79,0,0,1-.24,2.8,3.84,3.84,0,0,1-1.13,1.35l-.09,0a5.17,5.17,0,0,0-1.25-.44,5.36,5.36,0,0,0-3.1.27A3.65,3.65,0,0,1,23.26,116.49Zm-4.49,16.27a7.62,7.62,0,0,0-5.89-.67,8,8,0,0,0-1.69.75,7.5,7.5,0,0,0-3.67-4.1,7.5,7.5,0,0,0,.78-5.45,7.16,7.16,0,0,0,1.82-.31,7.46,7.46,0,0,0,4.53-3.82,7.57,7.57,0,0,0,5.89.67c.17,0,.33-.13.5-.19a5.58,5.58,0,0,0,1.12,2.16h0a5.74,5.74,0,0,0-1.34,1.73.3.3,0,0,1,0,.1l-9.79,3a1,1,0,0,0-.67,1.25,1,1,0,0,0,.75.68.86.86,0,0,0,.5,0l8.65-2.62a5.51,5.51,0,0,0,1.31,3.86A7.44,7.44,0,0,0,18.77,132.76Zm10.07-5.24a3.6,3.6,0,0,1-4.75,1.74,3.37,3.37,0,0,1-1.68-2,3.73,3.73,0,0,1,.21-2.87,3.63,3.63,0,0,1,4-2,3.17,3.17,0,0,1,.78.28A3.58,3.58,0,0,1,28.84,127.52Zm1.09-5.31a5.74,5.74,0,0,0,1.34-1.73,6,6,0,0,0,.44-1.27,3.48,3.48,0,0,1,2.54-.46A3.17,3.17,0,0,1,35,119a3.36,3.36,0,0,1,1.71,2,3.74,3.74,0,0,1-.24,2.8,3.62,3.62,0,0,1-4,2,2.78,2.78,0,0,1-.78-.27,3.84,3.84,0,0,1-.54-.35A5.49,5.49,0,0,0,29.93,122.21Zm15.67,15.1a7.48,7.48,0,0,0-5.08,2.14,7,7,0,0,0-1.2-1.4,7.41,7.41,0,0,0-3.45-1.77,7.09,7.09,0,0,0-2.16-.15,7.44,7.44,0,0,0-2.46-5.39,7.62,7.62,0,0,0-1.52-1.05,5.49,5.49,0,0,0,.88-1.28,6,6,0,0,0,.38-1,6,6,0,0,0,1.1.38,5.27,5.27,0,0,0,1.58.08l8.3,7.52a.93.93,0,0,0,.46.24,1,1,0,0,0,.88-1.72l-7.41-6.72h0a5.71,5.71,0,0,0,2.38-2.48,3.52,3.52,0,0,0,.18-.45h0a7.52,7.52,0,0,0,4.8,1.3,7.48,7.48,0,0,0,4,6.45A7.48,7.48,0,0,0,45.6,137.31Z"/><path class="cls-1" d="M101.77,73.84a5,5,0,0,0-1.84-4.17l0,0a20.62,20.62,0,0,0,1.52-7C102,53.37,89.27,47.77,76.39,47c0,0,0,0,0,0-.51,0-1-.12-1.54-.15-12.6-.75-23.37,7.42-24,18.21a5.66,5.66,0,0,0,3.38,5.49A9.28,9.28,0,0,0,49.9,82,9.33,9.33,0,0,0,53.11,94a9.33,9.33,0,0,0,12.27,8.8l.09.08a.76.76,0,0,0,.18.18,1.88,1.88,0,0,0,.25.24c.19.17.37.33.63.53l.18.14a8.31,8.31,0,0,0,1,.65l.09,0a9.14,9.14,0,0,0,.93.42l.17.06.19.07c.29.1.57.17.78.22l.44.11a10.16,10.16,0,0,0,1.25.16,9.77,9.77,0,0,0,1.32,0,1.68,1.68,0,0,0,.31,0,6.55,6.55,0,0,0,.8-.12l.37-.08.14,0a6.72,6.72,0,0,0,.93-.29l.12-.05a9.08,9.08,0,0,0,1.16-.55l.18-.12.73-.48.15-.11.13-.11h0l.19-.14a9.48,9.48,0,0,0,3.41.87,9.35,9.35,0,0,0,9.82-8.17A9.31,9.31,0,0,0,96,84.69,9.19,9.19,0,0,0,97,81a9.4,9.4,0,0,0-.21-2.44A5,5,0,0,0,101.77,73.84Zm-3-11.39a18,18,0,0,1-1.3,6.1,0,0,0,0,1,0,0c-.13,0-.26,0-.4-.06a3.59,3.59,0,0,0-.66,0c0-.26.1-.5.12-.77.35-5.86-2.39-11.3-7-15.17C95.1,54.85,99,58.27,98.75,62.45ZM73.92,66.61a5,5,0,0,0-5.33,4.73,4.92,4.92,0,0,0,0,1c-.53.06-1,.14-1.57.25l-.21.06.06,0-1,.23a9.32,9.32,0,0,0-5.65-3.34,5.59,5.59,0,0,0,1.82-3.8c.31-5.29,5.75-9.28,12.13-8.9s11.32,5,11,10.27a5.64,5.64,0,0,0,1.42,4.08,9.3,9.3,0,0,0-5.5,2.6c-.3-.12-.6-.24-.89-.33l-.14,0-.09,0c-.5-.17-1-.31-1.52-.44a4.74,4.74,0,0,0,.16-1A5,5,0,0,0,73.92,66.61Zm2,5.16a2.31,2.31,0,1,1-2.17-2.44A2.31,2.31,0,0,1,75.93,71.77ZM53.51,65.23c.55-9.29,10-16.31,21.13-15.65s19.68,8.75,19.13,18a2.92,2.92,0,0,1-5.84-.34c.41-6.79-5.68-12.69-13.56-13.16s-14.62,4.68-15,11.47a2.93,2.93,0,0,1-5.84-.35Zm39.7,19.94a6.55,6.55,0,0,1,.6,3.15,6.67,6.67,0,0,1-4.25,5.79,1.33,1.33,0,0,0-.87,1.23,1.07,1.07,0,0,0,0,.18,6.61,6.61,0,0,1-7,6.21,6.37,6.37,0,0,1-3-1,1.39,1.39,0,0,0-1.38,0,1.57,1.57,0,0,0-.33.25l-.13.12a4.94,4.94,0,0,1-.6.53c-.09.06-.17.13-.2.14a4.78,4.78,0,0,1-.47.32l-.16.1a7,7,0,0,1-.73.36,1.27,1.27,0,0,0-.18.06,6,6,0,0,1-.61.19l-.19,0-.15,0a5.15,5.15,0,0,1-.69.1l-.18,0a6.59,6.59,0,0,1-1.77-.11l-.25-.06c-.2,0-.39-.1-.6-.17l-.13,0-.15-.06a5.83,5.83,0,0,1-.62-.28l-.13-.06a6.23,6.23,0,0,1-.72-.46l-.18-.15c-.14-.1-.27-.22-.4-.33l0-.05-.21-.21a3.48,3.48,0,0,1-.47-.53l-.13-.15a1.25,1.25,0,0,0-.27-.25A1.35,1.35,0,0,0,65.2,100a6.53,6.53,0,0,1-3.15.6,6.61,6.61,0,0,1-6.2-7l-1.36-.11,1.38-.07a1.38,1.38,0,0,0-.72-1.33,6.61,6.61,0,0,1-2.58-9.31,1.35,1.35,0,0,0,.07-1.28,6.6,6.6,0,0,1,11.57-6.3,1.36,1.36,0,0,0,1.55.58c.56-.17,1.13-.32,1.74-.45l.14,0A14,14,0,0,1,69.22,75a1.55,1.55,0,0,0,.21,0l.12,0,.28,0a5,5,0,0,0,7.17.41l.15,0a2,2,0,0,0,.28.08l.17,0c.51.12,1,.26,1.5.43l.19.06a17.15,17.15,0,0,1,1.65.65,1.39,1.39,0,0,0,1.61-.39,6.53,6.53,0,0,1,9.67-.55,5,5,0,0,0,1.24,1.62,6.6,6.6,0,0,1,.79,3.5,6.48,6.48,0,0,1-1,3A1.34,1.34,0,0,0,93.21,85.17Zm3.39-9.32a2.31,2.31,0,1,1,2.45-2.17A2.31,2.31,0,0,1,96.6,75.85ZM80.08,79.07a12.22,12.22,0,0,1-6.2-1.28,1.36,1.36,0,0,0-1.24-.07,12.23,12.23,0,0,1-6.3.54,1.38,1.38,0,0,0-1.57,1.13A1.36,1.36,0,0,0,65.9,81a15,15,0,0,0,1.7.19h.6c.34,1.52,2.18,2.66,4.69,2.81s4.48-.77,5-2.24l.61.07c.58,0,1.15,0,1.71,0a1.37,1.37,0,0,0-.12-2.73Zm-7,2.17a4.64,4.64,0,0,1-1.58-.35,11.09,11.09,0,0,0,1.63-.42,11.15,11.15,0,0,0,1.57.61A4.86,4.86,0,0,1,73.05,81.24ZM70,64.33A2,2,0,1,1,68,62.17,2.06,2.06,0,0,1,70,64.33Zm12.25.72a2,2,0,1,1-1.92-2.16A2,2,0,0,1,82.21,65.05Z"/><path class="cls-1" d="M113.57,8.72A1.4,1.4,0,1,1,112,7.55,1.4,1.4,0,0,1,113.57,8.72Zm-10.8,3.39a1.4,1.4,0,1,0,1.59,1.17A1.4,1.4,0,0,0,102.77,12.11Zm0,0a1.4,1.4,0,1,0,1.59,1.17A1.4,1.4,0,0,0,102.77,12.11Zm-4.68,9.07a1.4,1.4,0,1,0,1.59,1.17A1.4,1.4,0,0,0,98.09,21.18Zm1.55,10.13a1.4,1.4,0,1,0,1.6,1.17A1.41,1.41,0,0,0,99.64,31.31ZM98.09,21.18a1.4,1.4,0,1,0,1.59,1.17A1.4,1.4,0,0,0,98.09,21.18Zm4.68-9.07a1.4,1.4,0,1,0,1.59,1.17A1.4,1.4,0,0,0,102.77,12.11ZM122,9.18a1.39,1.39,0,0,0-1.16,1.59A1.4,1.4,0,1,0,122,9.18Zm7.17,7.26a1.4,1.4,0,1,0,1.59,1.17A1.41,1.41,0,0,0,129.18,16.44Zm1.55,10.13a1.4,1.4,0,1,0,1.59,1.17A1.4,1.4,0,0,0,130.73,26.57ZM131.24,38c0,.13.06.23.08.36.66,4.28-1.25,6.88-5.53,7.54a10.58,10.58,0,0,1-5.64-.63,3.39,3.39,0,0,1-2.25,1.42,3.34,3.34,0,0,1-2.56-.68,10.63,10.63,0,0,1-5.19,2.28c-4.28.66-6.89-1.25-7.54-5.53,0-.13,0-.23,0-.36A20.94,20.94,0,1,1,131.24,38Zm-16.75,5.82-.86-5.62a2.5,2.5,0,0,1,0-.47,8.72,8.72,0,0,0-5.11-.54A4.56,4.56,0,0,0,105,42c.41,3.42,2,4.72,5.31,4.21a8.61,8.61,0,0,0,4.35-2A3.31,3.31,0,0,1,114.49,43.78Zm3.09-6.23a1,1,0,0,0-1.25-1.17c-.74.11-1.25.8-1.71,1.62l.86,5.63a2.75,2.75,0,0,0,2.12,1,1,1,0,0,0,.85-1.49Zm1-2.47a10.57,10.57,0,0,1,5.19-2.3h.14A12,12,0,1,0,108,35.21h-.06l.2,0a10.58,10.58,0,0,1,5.64.63A3.38,3.38,0,0,1,116,34.4,3.33,3.33,0,0,1,118.59,35.08ZM129,38.3a4.55,4.55,0,0,0-4.84-3.55,8.72,8.72,0,0,0-4.72,2,2.3,2.3,0,0,1,.12.45l.86,5.62a2.42,2.42,0,0,1,0,.46,8.63,8.63,0,0,0,4.75.6C128.48,43.42,129.63,41.7,129,38.3Zm1.47-2.73a18.94,18.94,0,1,0-27.88,4.27,5.15,5.15,0,0,1,3-3.91h0a14,14,0,1,1,20.77-3.18A5.1,5.1,0,0,1,130.47,35.57Z"/><path class="cls-1" d="M36.32,170.87a1,1,0,0,0-.08-.14,17.61,17.61,0,0,0-14.37-8.3l-.74-4.31-.16-.93-.1-.58a3,3,0,0,0-2.49-2.56,3,3,0,0,0-3.44,3.47l.12.69-.83,1.09.74,4.31A17.58,17.58,0,0,0,4,183a17.29,17.29,0,0,0,2.31,6.14,1,1,0,0,0,.08.14,17.54,17.54,0,0,0,29.9-18.36ZM5.4,182.7a16.09,16.09,0,0,1-.22-2.48,17.08,17.08,0,0,0,15.28-4.86,15.2,15.2,0,0,1,15.39-3.83,16.31,16.31,0,0,1,2.07,5.6,17.29,17.29,0,0,1,.22,2.46,17.2,17.2,0,0,0-15.28,4.88A15.21,15.21,0,0,1,7.47,188.3,16.31,16.31,0,0,1,5.4,182.7Zm12.34-26.63a1,1,0,0,1,1.15.81l.11.63-2,.33-.11-.62A1,1,0,0,1,17.74,156.07Zm-1,5.89-.34-2,3-.5.33,2Zm2.15,1.69a16.5,16.5,0,0,1,15.18,5.4A17.22,17.22,0,0,0,19,174a15.18,15.18,0,0,1-13.77,4.25A16.52,16.52,0,0,1,18.87,163.65Zm5.58,32.53a16.51,16.51,0,0,1-15.18-5.4,17.19,17.19,0,0,0,15-4.91,15.13,15.13,0,0,1,13.77-4.25A16.52,16.52,0,0,1,24.45,196.18Z"/><path class="cls-1" d="M132.81,246.72l-3.31.58a5.09,5.09,0,0,0-.33-6.62,5.57,5.57,0,0,0-5-1.59,5.68,5.68,0,0,0-2.75,1.31c-1.7,1.49-3,6.24-3.46,8.38-1.2-1.84-4-5.86-6.13-6.67a5.72,5.72,0,0,0-3-.29,5.53,5.53,0,0,0-4.16,3.22,5.08,5.08,0,0,0,2,6.33l-3.3.59a1,1,0,0,0-.81,1.16l1.4,7.87a1,1,0,0,0,1.16.81h0l3.14,17.73a1,1,0,0,0,1.16.81l9.68-1.72,7.23-1.28,9.67-1.72a1,1,0,0,0,.81-1.16l-3.14-17.72,1-.18a1,1,0,0,0,.81-1.16L134,247.53A1,1,0,0,0,132.81,246.72Zm.41,8.05-.52.09-8.34,1.48-1-5.91,8.86-1.57Zm-11.88-4,1,5.91-4.92.87-1-5.9Zm1.3-9.5a3.61,3.61,0,0,1,1.75-.86,3.5,3.5,0,0,1,3,6c-.3.28-1.42,1-5.31,1.68-.78.14-1.51.25-2.1.33C120.59,245.74,121.66,242.18,122.64,241.28Zm-16.27,4a3.49,3.49,0,0,1,2.64-2.13,3.54,3.54,0,0,1,1.93.21c1.24.51,3.46,3.48,5,5.82-.58.13-1.31.29-2.1.42h0c-3.87.69-5.17.41-5.54.26A3.52,3.52,0,0,1,106.37,245.28Zm-1.77,8.47,8.86-1.57,1.05,5.91-8.34,1.48-.52.09Zm2.38,7.7,7.88-1.39,3,16.73-7.88,1.4Zm12.82,15-3-16.74,4.92-.88,3,16.74Zm15.75-2.8-7.87,1.4-3-16.74,7.87-1.4Z"/><path class="cls-1" d="M49,273.49a1,1,0,0,0-.71-.76,5.43,5.43,0,0,1-2.22-1.21,5.5,5.5,0,0,1-1.74-4.95,1,1,0,0,0-.32-.89,1,1,0,0,0-.92-.23,5.57,5.57,0,0,1-5.08-1.24,1.36,1.36,0,0,1-.12-.12h0a5.91,5.91,0,0,0-.23-1.61,5.4,5.4,0,0,0-1.51-2.36,5.17,5.17,0,0,1,.12-1.17,5.48,5.48,0,0,1,3.41-4,1,1,0,0,0,.62-.73,1,1,0,0,0-.27-.91,5.48,5.48,0,0,1-.29-7.41,1,1,0,0,0-.69-1.64c-.18,0-.37,0-.62-.09a5.52,5.52,0,0,1-4.12-3.87,1.16,1.16,0,0,0-.83-.72,1,1,0,0,0-1,.33,5.54,5.54,0,0,1-5.41,1.81,3.47,3.47,0,0,1-.55-.16,1,1,0,0,0-1.3,1.22,5.77,5.77,0,0,1-1,5.09A4.84,4.84,0,0,1,22,249.44a1,1,0,0,0-.63.72,1,1,0,0,0,.27.91A5.55,5.55,0,0,1,23.19,255,5.77,5.77,0,0,0,20,259.52a5.3,5.3,0,0,1-.95.4,5.57,5.57,0,0,1-5.12-1.05,1,1,0,0,0-.93-.19,1,1,0,0,0-.67.67,5.51,5.51,0,0,1-3.69,3.72,5.39,5.39,0,0,1-2.52.15,1,1,0,0,0-1,.38,1,1,0,0,0-.11,1,4.68,4.68,0,0,1,.32.81,5.49,5.49,0,0,1-1,5.13,1,1,0,0,0-.19.93,1,1,0,0,0,.67.67,5.49,5.49,0,0,1,3.72,3.68,5.18,5.18,0,0,1,.18.84,1,1,0,0,0,.66.81l.12,0a1,1,0,0,0,.9-.26,5.57,5.57,0,0,1,3.62-1.52,6.36,6.36,0,0,1,3.78,1.36,1,1,0,0,0,.85.13,1,1,0,0,0,.67-.68,5.43,5.43,0,0,1,3.1-3.48,5.8,5.8,0,0,0,1.15.4,5.53,5.53,0,0,0,3.46-.41h0a5.62,5.62,0,0,1,2,1.14,5.47,5.47,0,0,1,1.73,4.94,1,1,0,0,0,.32.9,1,1,0,0,0,.92.23A5.59,5.59,0,0,1,37,281.54a5.43,5.43,0,0,1,1.43,2.08,1,1,0,0,0,.72.62l.11,0a1,1,0,0,0,.94-.45,5.9,5.9,0,0,1,.52-.69,5.55,5.55,0,0,1,4.94-1.74,1,1,0,0,0,1.12-1.23,5.52,5.52,0,0,1,1.25-5.09,5.23,5.23,0,0,1,.63-.59A1,1,0,0,0,49,273.49ZM23.38,250.6a7.48,7.48,0,0,0,3.44-4.82,7.82,7.82,0,0,0,.15-2.05,7.48,7.48,0,0,0,5.49-1.56,7.52,7.52,0,0,0,4.37,3.68,7.52,7.52,0,0,0,.44,7.74,7.52,7.52,0,0,0-3.44,4.83c0,.14,0,.29-.06.44a4,4,0,0,0-.57-.16,5.34,5.34,0,0,0-2.89.18h0a5.27,5.27,0,0,0-.16-.79c0-.08-.07-.15-.1-.23l0,0,2.52-11.71a1,1,0,1,0-2-.42l-2.14,9.9a5,5,0,0,0-1.08-.74,5.17,5.17,0,0,0-1.25-.44,5.51,5.51,0,0,0-1.51-.09A7.48,7.48,0,0,0,23.38,250.6Zm-1.12,7.89a3.63,3.63,0,0,1,4-2,3.07,3.07,0,0,1,.77.27,3.33,3.33,0,0,1,1.72,2,3.79,3.79,0,0,1-.24,2.8,3.84,3.84,0,0,1-1.13,1.35l-.09,0a5.17,5.17,0,0,0-1.25-.44,5.36,5.36,0,0,0-3.1.27A3.65,3.65,0,0,1,22.26,258.49Zm-4.49,16.27a7.62,7.62,0,0,0-5.89-.67,8,8,0,0,0-1.69.75,7.5,7.5,0,0,0-3.67-4.1,7.5,7.5,0,0,0,.78-5.45A7.16,7.16,0,0,0,9.12,265a7.46,7.46,0,0,0,4.53-3.82,7.57,7.57,0,0,0,5.89.67c.17-.05.33-.13.5-.19a5.58,5.58,0,0,0,1.12,2.16h0a5.74,5.74,0,0,0-1.34,1.73.3.3,0,0,1,0,.1l-9.79,3a1,1,0,0,0-.67,1.25,1,1,0,0,0,.75.68.86.86,0,0,0,.5,0l8.65-2.62a5.51,5.51,0,0,0,1.31,3.86A7.44,7.44,0,0,0,17.77,274.76Zm10.07-5.24a3.6,3.6,0,0,1-4.75,1.74,3.37,3.37,0,0,1-1.68-2,3.73,3.73,0,0,1,.21-2.87,3.63,3.63,0,0,1,4-2,3.17,3.17,0,0,1,.78.28A3.58,3.58,0,0,1,27.84,269.52Zm1.09-5.31a5.74,5.74,0,0,0,1.34-1.73,6,6,0,0,0,.44-1.27,3.48,3.48,0,0,1,2.54-.46A3.17,3.17,0,0,1,34,261a3.36,3.36,0,0,1,1.71,2,3.74,3.74,0,0,1-.24,2.8,3.62,3.62,0,0,1-4,2,2.78,2.78,0,0,1-.78-.27,3.84,3.84,0,0,1-.54-.35A5.49,5.49,0,0,0,28.93,264.21Zm15.67,15.1a7.48,7.48,0,0,0-5.08,2.14,7,7,0,0,0-1.2-1.4,7.41,7.41,0,0,0-3.45-1.77,7.09,7.09,0,0,0-2.16-.15,7.44,7.44,0,0,0-2.46-5.39,7.62,7.62,0,0,0-1.52-1.05,5.49,5.49,0,0,0,.88-1.28,6,6,0,0,0,.38-1,6,6,0,0,0,1.1.38,5.27,5.27,0,0,0,1.58.08l8.3,7.52a.93.93,0,0,0,.46.24,1,1,0,0,0,.88-1.72l-7.41-6.72h0a5.71,5.71,0,0,0,2.38-2.48,3.52,3.52,0,0,0,.18-.45h0a7.52,7.52,0,0,0,4.8,1.3,7.48,7.48,0,0,0,4,6.45A7.48,7.48,0,0,0,44.6,279.31Z"/><path class="cls-1" d="M100.77,215.84a5,5,0,0,0-1.84-4.17l0,0a20.62,20.62,0,0,0,1.52-7c.55-9.24-12.2-14.84-25.08-15.6,0,0,0,0,0,0-.51,0-1-.12-1.54-.15-12.6-.75-23.37,7.42-24,18.21a5.66,5.66,0,0,0,3.38,5.49A9.28,9.28,0,0,0,48.9,224,9.33,9.33,0,0,0,52.11,236a9.33,9.33,0,0,0,12.27,8.8l.09.08a.76.76,0,0,0,.18.18,1.88,1.88,0,0,0,.25.24c.19.17.37.33.63.53l.18.14a8.31,8.31,0,0,0,1,.65l.09,0a9.14,9.14,0,0,0,.93.42l.17.06.19.07c.29.1.57.17.78.22l.44.11a10.16,10.16,0,0,0,1.25.16,9.77,9.77,0,0,0,1.32,0,1.68,1.68,0,0,0,.31,0,6.55,6.55,0,0,0,.8-.12l.37-.08.14,0a6.72,6.72,0,0,0,.93-.29l.12-.05a9.08,9.08,0,0,0,1.16-.55l.18-.12.73-.48.15-.11.13-.11h0l.19-.14a9.48,9.48,0,0,0,3.41.87,9.35,9.35,0,0,0,9.82-8.17,9.31,9.31,0,0,0,4.6-11.6A9.19,9.19,0,0,0,96,223a9.4,9.4,0,0,0-.21-2.44A5,5,0,0,0,100.77,215.84Zm-3-11.39a18,18,0,0,1-1.3,6.1,0,0,0,0,1,0,0c-.13,0-.26-.05-.4-.06a3.59,3.59,0,0,0-.66,0c0-.26.1-.5.12-.77.35-5.86-2.39-11.3-7-15.17C94.1,196.85,98,200.27,97.75,204.45Zm-24.83,4.16a5,5,0,0,0-5.33,4.73,4.92,4.92,0,0,0,0,1c-.53.06-1,.14-1.57.25l-.21.06.06,0-1,.23a9.32,9.32,0,0,0-5.65-3.34,5.59,5.59,0,0,0,1.82-3.8c.31-5.29,5.75-9.28,12.13-8.9s11.32,5,11,10.27a5.64,5.64,0,0,0,1.42,4.08,9.3,9.3,0,0,0-5.5,2.6c-.3-.12-.6-.24-.89-.33l-.14-.05-.09,0c-.5-.17-1-.31-1.52-.44a4.74,4.74,0,0,0,.16-1A5,5,0,0,0,72.92,208.61Zm2,5.16a2.31,2.31,0,1,1-2.17-2.44A2.31,2.31,0,0,1,74.93,213.77Zm-22.42-6.54c.55-9.29,10-16.31,21.13-15.65s19.68,8.75,19.13,18a2.92,2.92,0,1,1-5.84-.34c.41-6.79-5.68-12.69-13.56-13.16s-14.62,4.68-15,11.47a2.93,2.93,0,0,1-5.84-.35Zm39.7,19.94a6.55,6.55,0,0,1,.6,3.15,6.67,6.67,0,0,1-4.25,5.79,1.33,1.33,0,0,0-.87,1.23,1.07,1.07,0,0,0,0,.18,6.61,6.61,0,0,1-7,6.21,6.37,6.37,0,0,1-3-1,1.39,1.39,0,0,0-1.38,0,1.57,1.57,0,0,0-.33.25l-.13.12a4.94,4.94,0,0,1-.6.53c-.09.06-.17.13-.2.14a4.78,4.78,0,0,1-.47.32l-.16.1a7,7,0,0,1-.73.36l-.18.06a6,6,0,0,1-.61.19l-.19,0-.15,0a5.15,5.15,0,0,1-.69.1,1.13,1.13,0,0,1-.18,0,6.59,6.59,0,0,1-1.77-.11l-.25-.06c-.2-.05-.39-.1-.6-.17l-.13,0-.15-.06a5.83,5.83,0,0,1-.62-.28l-.13-.06a6.23,6.23,0,0,1-.72-.46l-.18-.15c-.14-.1-.27-.22-.4-.33l0,0-.21-.21a3.48,3.48,0,0,1-.47-.53l-.13-.15a1.25,1.25,0,0,0-.27-.25A1.35,1.35,0,0,0,64.2,242a6.53,6.53,0,0,1-3.15.6,6.61,6.61,0,0,1-6.2-7l-1.36-.11,1.38-.07a1.38,1.38,0,0,0-.72-1.33,6.61,6.61,0,0,1-2.58-9.31,1.35,1.35,0,0,0,.07-1.28,6.6,6.6,0,0,1,11.57-6.3,1.36,1.36,0,0,0,1.55.58c.56-.17,1.13-.32,1.74-.45l.14,0a14,14,0,0,1,1.58-.25,1.55,1.55,0,0,0,.21,0l.12,0,.28,0a5,5,0,0,0,7.17.41l.15,0,.28.08.17.05c.51.12,1,.26,1.5.43l.19.06a17.15,17.15,0,0,1,1.65.65,1.39,1.39,0,0,0,1.61-.39,6.53,6.53,0,0,1,9.67-.55,5,5,0,0,0,1.24,1.62,6.6,6.6,0,0,1,.79,3.5,6.48,6.48,0,0,1-1,3A1.34,1.34,0,0,0,92.21,227.17Zm3.39-9.32a2.31,2.31,0,1,1,2.45-2.17A2.31,2.31,0,0,1,95.6,217.85Zm-16.52,3.22a12.22,12.22,0,0,1-6.2-1.28,1.36,1.36,0,0,0-1.24-.07,12.23,12.23,0,0,1-6.3.54,1.38,1.38,0,0,0-1.57,1.13A1.36,1.36,0,0,0,64.9,223a15,15,0,0,0,1.7.19h.6c.34,1.52,2.18,2.66,4.69,2.81s4.48-.77,5-2.24l.61.07c.58,0,1.15,0,1.71,0a1.37,1.37,0,0,0-.12-2.73Zm-7,2.17a4.64,4.64,0,0,1-1.58-.35,11.09,11.09,0,0,0,1.63-.42,11.15,11.15,0,0,0,1.57.61A4.86,4.86,0,0,1,72.05,223.24ZM69,206.33A2,2,0,1,1,67,204.17,2.06,2.06,0,0,1,69,206.33Zm12.25.72a2,2,0,1,1-1.92-2.16A2,2,0,0,1,81.21,207.05Z"/><path class="cls-1" d="M112.57,150.72a1.4,1.4,0,1,1-1.59-1.17A1.4,1.4,0,0,1,112.57,150.72Zm-10.8,3.39a1.4,1.4,0,1,0,1.59,1.17A1.4,1.4,0,0,0,101.77,154.11Zm0,0a1.4,1.4,0,1,0,1.59,1.17A1.4,1.4,0,0,0,101.77,154.11Zm-4.68,9.07a1.4,1.4,0,1,0,1.59,1.17A1.4,1.4,0,0,0,97.09,163.18Zm1.55,10.13a1.4,1.4,0,1,0,1.6,1.17A1.41,1.41,0,0,0,98.64,173.31Zm-1.55-10.13a1.4,1.4,0,1,0,1.59,1.17A1.4,1.4,0,0,0,97.09,163.18Zm4.68-9.07a1.4,1.4,0,1,0,1.59,1.17A1.4,1.4,0,0,0,101.77,154.11ZM121,151.18a1.39,1.39,0,0,0-1.16,1.59,1.4,1.4,0,1,0,1.16-1.59Zm7.17,7.26a1.4,1.4,0,1,0,1.59,1.17A1.41,1.41,0,0,0,128.18,158.44Zm1.55,10.13a1.4,1.4,0,1,0,1.59,1.17A1.4,1.4,0,0,0,129.73,168.57Zm.51,11.39c0,.13.06.23.08.36.66,4.28-1.25,6.88-5.53,7.54a10.58,10.58,0,0,1-5.64-.63,3.39,3.39,0,0,1-2.25,1.42,3.34,3.34,0,0,1-2.56-.68,10.63,10.63,0,0,1-5.19,2.28c-4.28.66-6.89-1.25-7.54-5.53,0-.13,0-.23,0-.36a20.94,20.94,0,1,1,28.66-4.4Zm-16.75,5.82-.86-5.62a2.5,2.5,0,0,1,0-.47,8.72,8.72,0,0,0-5.11-.54A4.56,4.56,0,0,0,104,184c.41,3.42,2,4.72,5.31,4.21a8.61,8.61,0,0,0,4.35-2A3.31,3.31,0,0,1,113.49,185.78Zm3.09-6.23a1,1,0,0,0-1.25-1.17c-.74.11-1.25.8-1.71,1.62l.86,5.63a2.75,2.75,0,0,0,2.12,1,1,1,0,0,0,.85-1.49Zm1-2.47a10.57,10.57,0,0,1,5.19-2.3h.14A12,12,0,1,0,107,177.21h-.06l.2,0a10.58,10.58,0,0,1,5.64.63A3.38,3.38,0,0,1,115,176.4,3.33,3.33,0,0,1,117.59,177.08ZM128,180.3a4.55,4.55,0,0,0-4.84-3.55,8.72,8.72,0,0,0-4.72,2.05,2.3,2.3,0,0,1,.12.45l.86,5.62a2.42,2.42,0,0,1,0,.46,8.63,8.63,0,0,0,4.75.6C127.48,185.42,128.63,183.7,128,180.3Zm1.47-2.73a18.94,18.94,0,1,0-27.88,4.27,5.15,5.15,0,0,1,3-3.91h0a14,14,0,1,1,20.77-3.18A5.1,5.1,0,0,1,129.47,177.57Z"/><path class="cls-1" d="M182.32,26.87a1,1,0,0,0-.08-.14,17.61,17.61,0,0,0-14.37-8.3l-.74-4.31-.16-.93-.1-.58a3,3,0,0,0-2.49-2.56,3,3,0,0,0-3.44,3.47l.12.69-.83,1.09.74,4.31A17.58,17.58,0,0,0,150,39a17.29,17.29,0,0,0,2.31,6.14,1,1,0,0,0,.08.14,17.54,17.54,0,0,0,29.9-18.36ZM151.4,38.7a16.09,16.09,0,0,1-.22-2.48,17.08,17.08,0,0,0,15.28-4.86,15.2,15.2,0,0,1,15.39-3.83,16.31,16.31,0,0,1,2.07,5.6,17.29,17.29,0,0,1,.22,2.46,17.2,17.2,0,0,0-15.28,4.88,15.21,15.21,0,0,1-15.39,3.83A16.31,16.31,0,0,1,151.4,38.7Zm12.34-26.63a1,1,0,0,1,1.15.81l.11.63-2,.33-.11-.62A1,1,0,0,1,163.74,12.07Zm-1,5.89-.34-2,3-.5.33,2Zm2.15,1.69a16.5,16.5,0,0,1,15.18,5.4A17.22,17.22,0,0,0,165,30a15.18,15.18,0,0,1-13.77,4.25A16.52,16.52,0,0,1,164.87,19.65Zm5.58,32.53a16.51,16.51,0,0,1-15.18-5.4,17.19,17.19,0,0,0,15-4.91,15.13,15.13,0,0,1,13.77-4.25A16.52,16.52,0,0,1,170.45,52.18Z"/><path class="cls-1" d="M278.81,102.72l-3.31.58a5.09,5.09,0,0,0-.33-6.62,5.57,5.57,0,0,0-5-1.59,5.68,5.68,0,0,0-2.75,1.31c-1.7,1.49-3,6.24-3.46,8.38-1.2-1.84-4-5.86-6.13-6.67a5.72,5.72,0,0,0-3-.29,5.53,5.53,0,0,0-4.16,3.22,5.08,5.08,0,0,0,2,6.33l-3.3.59a1,1,0,0,0-.81,1.16l1.4,7.87a1,1,0,0,0,1.16.81h0l3.14,17.73a1,1,0,0,0,1.16.81l9.68-1.72,7.23-1.28,9.67-1.72a1,1,0,0,0,.81-1.16l-3.14-17.72,1-.18a1,1,0,0,0,.81-1.16L280,103.53A1,1,0,0,0,278.81,102.72Zm.41,8-.52.09-8.34,1.48-1.05-5.91,8.86-1.57Zm-11.88-4,1.05,5.91-4.92.87-1.05-5.9Zm1.3-9.5a3.61,3.61,0,0,1,1.75-.86,3.5,3.5,0,0,1,3,6c-.3.28-1.42,1-5.31,1.68-.78.14-1.51.25-2.1.33C266.59,101.74,267.66,98.18,268.64,97.28Zm-16.27,4A3.49,3.49,0,0,1,255,99.15a3.54,3.54,0,0,1,1.93.21c1.24.51,3.46,3.48,5,5.82-.58.13-1.31.29-2.1.42h0c-3.87.69-5.17.41-5.54.26A3.52,3.52,0,0,1,252.37,101.28Zm-1.77,8.47,8.86-1.57,1.05,5.91-8.34,1.48-.52.09Zm2.38,7.7,7.88-1.39,3,16.73-7.88,1.4Zm12.82,15-3-16.74,4.92-.88,3,16.74Zm15.75-2.8-7.87,1.4-3-16.74,7.87-1.4Z"/><path class="cls-1" d="M195,129.49a1,1,0,0,0-.71-.76,5.43,5.43,0,0,1-2.22-1.21,5.5,5.5,0,0,1-1.74-5,1,1,0,0,0-.32-.89,1,1,0,0,0-.92-.23,5.57,5.57,0,0,1-5.08-1.24,1.36,1.36,0,0,1-.12-.12h0a5.91,5.91,0,0,0-.23-1.61,5.4,5.4,0,0,0-1.51-2.36,5.17,5.17,0,0,1,.12-1.17,5.48,5.48,0,0,1,3.41-4,1,1,0,0,0,.62-.73,1,1,0,0,0-.27-.91,5.48,5.48,0,0,1-.29-7.41,1,1,0,0,0-.69-1.64c-.18,0-.37,0-.62-.09a5.52,5.52,0,0,1-4.12-3.87,1.16,1.16,0,0,0-.83-.72,1,1,0,0,0-1,.33,5.54,5.54,0,0,1-5.41,1.81,3.47,3.47,0,0,1-.55-.16,1,1,0,0,0-1.3,1.22,5.77,5.77,0,0,1-1,5.09,4.84,4.84,0,0,1-2.28,1.54,1,1,0,0,0-.63.72,1,1,0,0,0,.27.91,5.55,5.55,0,0,1,1.57,3.89,5.77,5.77,0,0,0-3.24,4.56,5.3,5.3,0,0,1-.95.4,5.57,5.57,0,0,1-5.12-1,1,1,0,0,0-.93-.19,1,1,0,0,0-.67.67,5.51,5.51,0,0,1-3.69,3.72,5.39,5.39,0,0,1-2.52.15,1,1,0,0,0-1,.38,1,1,0,0,0-.11,1,4.68,4.68,0,0,1,.32.81,5.49,5.49,0,0,1-1.05,5.13,1,1,0,0,0-.19.93,1,1,0,0,0,.67.67,5.49,5.49,0,0,1,3.72,3.68,5.18,5.18,0,0,1,.18.84,1,1,0,0,0,.66.81l.12,0a1,1,0,0,0,.9-.26,5.57,5.57,0,0,1,3.62-1.52,6.36,6.36,0,0,1,3.78,1.36,1,1,0,0,0,.85.13,1,1,0,0,0,.67-.68,5.43,5.43,0,0,1,3.1-3.48,5.8,5.8,0,0,0,1.15.4,5.53,5.53,0,0,0,3.46-.41h0a5.62,5.62,0,0,1,2,1.14,5.47,5.47,0,0,1,1.73,4.94,1,1,0,0,0,.32.9,1,1,0,0,0,.92.23,5.59,5.59,0,0,1,5.09,1.24,5.43,5.43,0,0,1,1.43,2.08,1,1,0,0,0,.72.62l.11,0a1,1,0,0,0,.94-.45,5.9,5.9,0,0,1,.52-.69,5.55,5.55,0,0,1,4.94-1.74,1,1,0,0,0,1.12-1.23,5.52,5.52,0,0,1,1.25-5.09,5.23,5.23,0,0,1,.63-.59A1,1,0,0,0,195,129.49ZM169.38,106.6a7.48,7.48,0,0,0,3.44-4.82,7.82,7.82,0,0,0,.15-2,7.48,7.48,0,0,0,5.49-1.56,7.52,7.52,0,0,0,4.37,3.68,7.52,7.52,0,0,0,.44,7.74,7.52,7.52,0,0,0-3.44,4.83c0,.14,0,.29-.06.44a4,4,0,0,0-.57-.16,5.34,5.34,0,0,0-2.89.18h0a5.27,5.27,0,0,0-.16-.79c0-.08-.07-.15-.1-.23s0,0,0,0l2.52-11.71a1,1,0,1,0-2-.42l-2.14,9.9a5,5,0,0,0-1.08-.74,5.17,5.17,0,0,0-1.25-.44,5.51,5.51,0,0,0-1.51-.09A7.48,7.48,0,0,0,169.38,106.6Zm-1.12,7.89a3.63,3.63,0,0,1,4-2,3.07,3.07,0,0,1,.77.27,3.33,3.33,0,0,1,1.72,2,3.79,3.79,0,0,1-.24,2.8,3.84,3.84,0,0,1-1.13,1.35l-.09,0a5.17,5.17,0,0,0-1.25-.44,5.36,5.36,0,0,0-3.1.27A3.65,3.65,0,0,1,168.26,114.49Zm-4.49,16.27a7.62,7.62,0,0,0-5.89-.67,8,8,0,0,0-1.69.75,7.5,7.5,0,0,0-3.67-4.1,7.5,7.5,0,0,0,.78-5.45,7.16,7.16,0,0,0,1.82-.31,7.46,7.46,0,0,0,4.53-3.82,7.57,7.57,0,0,0,5.89.67c.17,0,.33-.13.5-.19a5.58,5.58,0,0,0,1.12,2.16h0a5.74,5.74,0,0,0-1.34,1.73.3.3,0,0,1,0,.1l-9.79,3a1,1,0,0,0-.67,1.25,1,1,0,0,0,.75.68.86.86,0,0,0,.5,0l8.65-2.62a5.51,5.51,0,0,0,1.31,3.86A7.44,7.44,0,0,0,163.77,130.76Zm10.07-5.24a3.6,3.6,0,0,1-4.75,1.74,3.37,3.37,0,0,1-1.68-2,3.73,3.73,0,0,1,.21-2.87,3.63,3.63,0,0,1,4-2,3.17,3.17,0,0,1,.78.28A3.58,3.58,0,0,1,173.84,125.52Zm1.09-5.31a5.74,5.74,0,0,0,1.34-1.73,6,6,0,0,0,.44-1.27,3.48,3.48,0,0,1,2.54-.46,3.17,3.17,0,0,1,.78.28,3.36,3.36,0,0,1,1.71,2,3.74,3.74,0,0,1-.24,2.8,3.62,3.62,0,0,1-4,2,2.78,2.78,0,0,1-.78-.27,3.84,3.84,0,0,1-.54-.35A5.49,5.49,0,0,0,174.93,120.21Zm15.67,15.1a7.48,7.48,0,0,0-5.08,2.14,7,7,0,0,0-1.2-1.4,7.41,7.41,0,0,0-3.45-1.77,7.09,7.09,0,0,0-2.16-.15,7.44,7.44,0,0,0-2.46-5.39,7.62,7.62,0,0,0-1.52-1.05,5.49,5.49,0,0,0,.88-1.28,6,6,0,0,0,.38-1,6,6,0,0,0,1.1.38,5.27,5.27,0,0,0,1.58.08l8.3,7.52a.93.93,0,0,0,.46.24,1,1,0,0,0,.88-1.72l-7.41-6.72h0a5.71,5.71,0,0,0,2.38-2.48,3.52,3.52,0,0,0,.18-.45h0a7.52,7.52,0,0,0,4.8,1.3,7.48,7.48,0,0,0,4,6.45A7.48,7.48,0,0,0,190.6,135.31Z"/><path class="cls-1" d="M246.77,71.84a5,5,0,0,0-1.84-4.17l0,0a20.62,20.62,0,0,0,1.52-7c.55-9.24-12.2-14.84-25.08-15.6,0,0,0,0,0,0-.51,0-1-.12-1.54-.15-12.6-.75-23.37,7.42-24,18.21a5.66,5.66,0,0,0,3.38,5.49A9.28,9.28,0,0,0,194.9,80,9.33,9.33,0,0,0,198.11,92a9.33,9.33,0,0,0,12.27,8.8l.09.08a.76.76,0,0,0,.18.18,1.88,1.88,0,0,0,.25.24c.19.17.37.33.63.53l.18.14a8.31,8.31,0,0,0,1,.65l.09,0a9.14,9.14,0,0,0,.93.42l.17.06.19.07c.29.1.57.17.78.22l.44.11a10.16,10.16,0,0,0,1.25.16,9.77,9.77,0,0,0,1.32,0,1.68,1.68,0,0,0,.31,0,6.55,6.55,0,0,0,.8-.12l.37-.08.14,0a6.72,6.72,0,0,0,.93-.29l.12-.05a9.08,9.08,0,0,0,1.16-.55l.18-.12.73-.48.15-.11.13-.11h0l.19-.14a9.48,9.48,0,0,0,3.41.87,9.35,9.35,0,0,0,9.82-8.17,9.31,9.31,0,0,0,4.6-11.6A9.19,9.19,0,0,0,242,79a9.4,9.4,0,0,0-.21-2.44A5,5,0,0,0,246.77,71.84Zm-3-11.39a18,18,0,0,1-1.3,6.1,0,0,0,0,1,0,0c-.13,0-.26,0-.4-.06a3.59,3.59,0,0,0-.66,0c0-.26.1-.5.12-.77.35-5.86-2.39-11.3-7-15.17C240.1,52.85,244,56.27,243.75,60.45Zm-24.83,4.16a5,5,0,0,0-5.33,4.73,4.92,4.92,0,0,0,0,1c-.53.06-1,.14-1.57.25l-.21.06.06,0-1,.23a9.32,9.32,0,0,0-5.65-3.34,5.59,5.59,0,0,0,1.82-3.8c.31-5.29,5.75-9.28,12.13-8.9s11.32,5,11,10.27a5.64,5.64,0,0,0,1.42,4.08,9.3,9.3,0,0,0-5.5,2.6c-.3-.12-.6-.24-.89-.33l-.14,0-.09,0c-.5-.17-1-.31-1.52-.44a4.74,4.74,0,0,0,.16-1A5,5,0,0,0,218.92,64.61Zm2,5.16a2.31,2.31,0,1,1-2.17-2.44A2.31,2.31,0,0,1,220.93,69.77Zm-22.42-6.54c.55-9.29,10-16.31,21.13-15.65s19.68,8.75,19.13,18a2.92,2.92,0,1,1-5.84-.34c.41-6.79-5.68-12.69-13.56-13.16s-14.62,4.68-15,11.47a2.93,2.93,0,0,1-5.84-.35Zm39.7,19.94a6.55,6.55,0,0,1,.6,3.15,6.67,6.67,0,0,1-4.25,5.79,1.33,1.33,0,0,0-.87,1.23,1.07,1.07,0,0,0,0,.18,6.61,6.61,0,0,1-7,6.21,6.37,6.37,0,0,1-3-1,1.39,1.39,0,0,0-1.38,0,1.57,1.57,0,0,0-.33.25l-.13.12a4.94,4.94,0,0,1-.6.53c-.09.06-.17.13-.2.14a4.78,4.78,0,0,1-.47.32l-.16.1a7,7,0,0,1-.73.36,1.27,1.27,0,0,0-.18.06,6,6,0,0,1-.61.19l-.19,0-.15,0a5.15,5.15,0,0,1-.69.1l-.18,0a6.59,6.59,0,0,1-1.77-.11l-.25-.06c-.2,0-.39-.1-.6-.17l-.13,0-.15-.06a5.83,5.83,0,0,1-.62-.28l-.13-.06a6.23,6.23,0,0,1-.72-.46l-.18-.15c-.14-.1-.27-.22-.4-.33l0-.05-.21-.21a3.48,3.48,0,0,1-.47-.53l-.13-.15a1.25,1.25,0,0,0-.27-.25A1.35,1.35,0,0,0,210.2,98a6.53,6.53,0,0,1-3.15.6,6.61,6.61,0,0,1-6.2-7l-1.36-.11,1.38-.07a1.38,1.38,0,0,0-.72-1.33,6.61,6.61,0,0,1-2.58-9.31,1.35,1.35,0,0,0,.07-1.28,6.6,6.6,0,0,1,11.57-6.3,1.36,1.36,0,0,0,1.55.58c.56-.17,1.13-.32,1.74-.45l.14,0a14,14,0,0,1,1.58-.25,1.55,1.55,0,0,0,.21,0l.12,0,.28,0a5,5,0,0,0,7.17.41l.15,0a2,2,0,0,0,.28.08l.17,0c.51.12,1,.26,1.5.43l.19.06a17.15,17.15,0,0,1,1.65.65,1.39,1.39,0,0,0,1.61-.39,6.53,6.53,0,0,1,9.67-.55,5,5,0,0,0,1.24,1.62,6.6,6.6,0,0,1,.79,3.5,6.48,6.48,0,0,1-1,3A1.34,1.34,0,0,0,238.21,83.17Zm3.39-9.32a2.31,2.31,0,1,1,2.45-2.17A2.31,2.31,0,0,1,241.6,73.85Zm-16.52,3.22a12.22,12.22,0,0,1-6.2-1.28,1.36,1.36,0,0,0-1.24-.07,12.23,12.23,0,0,1-6.3.54,1.38,1.38,0,0,0-1.57,1.13A1.36,1.36,0,0,0,210.9,79a15,15,0,0,0,1.7.19h.6c.34,1.52,2.18,2.66,4.69,2.81s4.48-.77,5-2.24l.61.07c.58,0,1.15,0,1.71,0a1.37,1.37,0,0,0-.12-2.73Zm-7,2.17a4.64,4.64,0,0,1-1.58-.35,11.09,11.09,0,0,0,1.63-.42,11.15,11.15,0,0,0,1.57.61A4.86,4.86,0,0,1,218.05,79.24ZM215,62.33A2,2,0,1,1,213,60.17,2.06,2.06,0,0,1,215,62.33Zm12.25.72a2,2,0,1,1-1.92-2.16A2,2,0,0,1,227.21,63.05Z"/><path class="cls-1" d="M258.57,6.72A1.4,1.4,0,1,1,257,5.55,1.4,1.4,0,0,1,258.57,6.72Zm-10.8,3.39a1.4,1.4,0,1,0,1.59,1.17A1.4,1.4,0,0,0,247.77,10.11Zm0,0a1.4,1.4,0,1,0,1.59,1.17A1.4,1.4,0,0,0,247.77,10.11Zm-4.68,9.07a1.4,1.4,0,1,0,1.59,1.17A1.4,1.4,0,0,0,243.09,19.18Zm1.55,10.13a1.4,1.4,0,1,0,1.6,1.17A1.41,1.41,0,0,0,244.64,29.31Zm-1.55-10.13a1.4,1.4,0,1,0,1.59,1.17A1.4,1.4,0,0,0,243.09,19.18Zm4.68-9.07a1.4,1.4,0,1,0,1.59,1.17A1.4,1.4,0,0,0,247.77,10.11ZM267,7.18a1.39,1.39,0,0,0-1.16,1.59A1.4,1.4,0,1,0,267,7.18Zm7.17,7.26a1.4,1.4,0,1,0,1.59,1.17A1.41,1.41,0,0,0,274.18,14.44Zm1.55,10.13a1.4,1.4,0,1,0,1.59,1.17A1.4,1.4,0,0,0,275.73,24.57ZM276.24,36c0,.13.06.23.08.36.66,4.28-1.25,6.88-5.53,7.54a10.58,10.58,0,0,1-5.64-.63,3.39,3.39,0,0,1-2.25,1.42,3.34,3.34,0,0,1-2.56-.68,10.63,10.63,0,0,1-5.19,2.28c-4.28.66-6.89-1.25-7.54-5.53,0-.13,0-.23,0-.36A20.94,20.94,0,1,1,276.24,36Zm-16.75,5.82-.86-5.62a2.5,2.5,0,0,1,0-.47,8.72,8.72,0,0,0-5.11-.54A4.56,4.56,0,0,0,250,40c.41,3.42,2,4.72,5.31,4.21a8.61,8.61,0,0,0,4.35-2A3.31,3.31,0,0,1,259.49,41.78Zm3.09-6.23a1,1,0,0,0-1.25-1.17c-.74.11-1.25.8-1.71,1.62l.86,5.63a2.75,2.75,0,0,0,2.12,1,1,1,0,0,0,.85-1.49Zm1-2.47a10.57,10.57,0,0,1,5.19-2.3h.14A12,12,0,1,0,253,33.21h-.06l.2,0a10.58,10.58,0,0,1,5.64.63A3.38,3.38,0,0,1,261,32.4,3.33,3.33,0,0,1,263.59,33.08ZM274,36.3a4.55,4.55,0,0,0-4.84-3.55,8.72,8.72,0,0,0-4.72,2,2.3,2.3,0,0,1,.12.45l.86,5.62a2.42,2.42,0,0,1,0,.46,8.63,8.63,0,0,0,4.75.6C273.48,41.42,274.63,39.7,274,36.3Zm1.47-2.73a18.94,18.94,0,1,0-27.88,4.27,5.15,5.15,0,0,1,3-3.91h0a14,14,0,1,1,20.77-3.18A5.1,5.1,0,0,1,275.47,33.57Z"/><path class="cls-1" d="M181.32,168.87a1,1,0,0,0-.08-.14,17.61,17.61,0,0,0-14.37-8.3l-.74-4.31-.16-.93-.1-.58a3,3,0,0,0-2.49-2.56,3,3,0,0,0-3.44,3.47l.12.69-.83,1.09.74,4.31A17.58,17.58,0,0,0,149,181a17.29,17.29,0,0,0,2.31,6.14,1,1,0,0,0,.08.14,17.54,17.54,0,0,0,29.9-18.36ZM150.4,180.7a16.09,16.09,0,0,1-.22-2.48,17.08,17.08,0,0,0,15.28-4.86,15.2,15.2,0,0,1,15.39-3.83,16.31,16.31,0,0,1,2.07,5.6,17.29,17.29,0,0,1,.22,2.46,17.2,17.2,0,0,0-15.28,4.88,15.21,15.21,0,0,1-15.39,3.83A16.31,16.31,0,0,1,150.4,180.7Zm12.34-26.63a1,1,0,0,1,1.15.81l.11.63-2,.33-.11-.62A1,1,0,0,1,162.74,154.07Zm-1,5.89-.34-2,3-.5.33,2Zm2.15,1.69a16.5,16.5,0,0,1,15.18,5.4A17.22,17.22,0,0,0,164,172a15.18,15.18,0,0,1-13.77,4.25A16.52,16.52,0,0,1,163.87,161.65Zm5.58,32.53a16.51,16.51,0,0,1-15.18-5.4,17.19,17.19,0,0,0,15-4.91,15.13,15.13,0,0,1,13.77-4.25A16.52,16.52,0,0,1,169.45,194.18Z"/><path class="cls-1" d="M277.81,244.72l-3.31.58a5.09,5.09,0,0,0-.33-6.62,5.57,5.57,0,0,0-5-1.59,5.68,5.68,0,0,0-2.75,1.31c-1.7,1.49-3,6.24-3.46,8.38-1.2-1.84-4-5.86-6.13-6.67a5.72,5.72,0,0,0-3-.29,5.53,5.53,0,0,0-4.16,3.22,5.08,5.08,0,0,0,2,6.33l-3.3.59a1,1,0,0,0-.81,1.16l1.4,7.87a1,1,0,0,0,1.16.81h0l3.14,17.73a1,1,0,0,0,1.16.81l9.68-1.72,7.23-1.28,9.67-1.72a1,1,0,0,0,.81-1.16l-3.14-17.72,1-.18a1,1,0,0,0,.81-1.16L279,245.53A1,1,0,0,0,277.81,244.72Zm.41,8.05-.52.09-8.34,1.48-1.05-5.91,8.86-1.57Zm-11.88-4,1.05,5.91-4.92.87-1.05-5.9Zm1.3-9.5a3.61,3.61,0,0,1,1.75-.86,3.5,3.5,0,0,1,3,6c-.3.28-1.42,1-5.31,1.68-.78.14-1.51.25-2.1.33C265.59,243.74,266.66,240.18,267.64,239.28Zm-16.27,4a3.49,3.49,0,0,1,2.64-2.13,3.54,3.54,0,0,1,1.93.21c1.24.51,3.46,3.48,5,5.82-.58.13-1.31.29-2.1.42h0c-3.87.69-5.17.41-5.54.26A3.52,3.52,0,0,1,251.37,243.28Zm-1.77,8.47,8.86-1.57,1.05,5.91-8.34,1.48-.52.09Zm2.38,7.7,7.88-1.39,3,16.73-7.88,1.4Zm12.82,15-3-16.74,4.92-.88,3,16.74Zm15.75-2.8-7.87,1.4-3-16.74,7.87-1.4Z"/><path class="cls-1" d="M194,271.49a1,1,0,0,0-.71-.76,5.43,5.43,0,0,1-2.22-1.21,5.5,5.5,0,0,1-1.74-4.95,1,1,0,0,0-.32-.89,1,1,0,0,0-.92-.23,5.57,5.57,0,0,1-5.08-1.24,1.36,1.36,0,0,1-.12-.12h0a5.91,5.91,0,0,0-.23-1.61,5.4,5.4,0,0,0-1.51-2.36,5.17,5.17,0,0,1,.12-1.17,5.48,5.48,0,0,1,3.41-4,1,1,0,0,0,.62-.73,1,1,0,0,0-.27-.91,5.48,5.48,0,0,1-.29-7.41,1,1,0,0,0-.69-1.64c-.18,0-.37,0-.62-.09a5.52,5.52,0,0,1-4.12-3.87,1.16,1.16,0,0,0-.83-.72,1,1,0,0,0-1,.33,5.54,5.54,0,0,1-5.41,1.81,3.47,3.47,0,0,1-.55-.16,1,1,0,0,0-1.3,1.22,5.77,5.77,0,0,1-1,5.09,4.84,4.84,0,0,1-2.28,1.54,1,1,0,0,0-.63.72,1,1,0,0,0,.27.91,5.55,5.55,0,0,1,1.57,3.89,5.77,5.77,0,0,0-3.24,4.56,5.3,5.3,0,0,1-.95.4,5.57,5.57,0,0,1-5.12-1.05,1,1,0,0,0-.93-.19,1,1,0,0,0-.67.67,5.51,5.51,0,0,1-3.69,3.72,5.39,5.39,0,0,1-2.52.15,1,1,0,0,0-1,.38,1,1,0,0,0-.11,1,4.68,4.68,0,0,1,.32.81,5.49,5.49,0,0,1-1.05,5.13,1,1,0,0,0-.19.93,1,1,0,0,0,.67.67,5.49,5.49,0,0,1,3.72,3.68,5.18,5.18,0,0,1,.18.84,1,1,0,0,0,.66.81l.12,0a1,1,0,0,0,.9-.26,5.57,5.57,0,0,1,3.62-1.52,6.36,6.36,0,0,1,3.78,1.36,1,1,0,0,0,.85.13,1,1,0,0,0,.67-.68,5.43,5.43,0,0,1,3.1-3.48,5.8,5.8,0,0,0,1.15.4,5.53,5.53,0,0,0,3.46-.41h0a5.62,5.62,0,0,1,2,1.14,5.47,5.47,0,0,1,1.73,4.94,1,1,0,0,0,.32.9,1,1,0,0,0,.92.23,5.59,5.59,0,0,1,5.09,1.24,5.43,5.43,0,0,1,1.43,2.08,1,1,0,0,0,.72.62l.11,0a1,1,0,0,0,.94-.45,5.9,5.9,0,0,1,.52-.69,5.55,5.55,0,0,1,4.94-1.74,1,1,0,0,0,1.12-1.23,5.52,5.52,0,0,1,1.25-5.09,5.23,5.23,0,0,1,.63-.59A1,1,0,0,0,194,271.49ZM168.38,248.6a7.48,7.48,0,0,0,3.44-4.82,7.82,7.82,0,0,0,.15-2.05,7.48,7.48,0,0,0,5.49-1.56,7.52,7.52,0,0,0,4.37,3.68,7.52,7.52,0,0,0,.44,7.74,7.52,7.52,0,0,0-3.44,4.83c0,.14,0,.29-.06.44a4,4,0,0,0-.57-.16,5.34,5.34,0,0,0-2.89.18h0a5.27,5.27,0,0,0-.16-.79c0-.08-.07-.15-.1-.23l0,0,2.52-11.71a1,1,0,1,0-2-.42l-2.14,9.9a5,5,0,0,0-1.08-.74,5.17,5.17,0,0,0-1.25-.44,5.51,5.51,0,0,0-1.51-.09A7.48,7.48,0,0,0,168.38,248.6Zm-1.12,7.89a3.63,3.63,0,0,1,4-2,3.07,3.07,0,0,1,.77.27,3.33,3.33,0,0,1,1.72,2,3.79,3.79,0,0,1-.24,2.8,3.84,3.84,0,0,1-1.13,1.35l-.09,0a5.17,5.17,0,0,0-1.25-.44,5.36,5.36,0,0,0-3.1.27A3.65,3.65,0,0,1,167.26,256.49Zm-4.49,16.27a7.62,7.62,0,0,0-5.89-.67,8,8,0,0,0-1.69.75,7.5,7.5,0,0,0-3.67-4.1,7.5,7.5,0,0,0,.78-5.45,7.16,7.16,0,0,0,1.82-.31,7.46,7.46,0,0,0,4.53-3.82,7.57,7.57,0,0,0,5.89.67c.17-.05.33-.13.5-.19a5.58,5.58,0,0,0,1.12,2.16h0a5.74,5.74,0,0,0-1.34,1.73.3.3,0,0,1,0,.1l-9.79,3a1,1,0,0,0-.67,1.25,1,1,0,0,0,.75.68.86.86,0,0,0,.5,0l8.65-2.62a5.51,5.51,0,0,0,1.31,3.86A7.44,7.44,0,0,0,162.77,272.76Zm10.07-5.24a3.6,3.6,0,0,1-4.75,1.74,3.37,3.37,0,0,1-1.68-2,3.73,3.73,0,0,1,.21-2.87,3.63,3.63,0,0,1,4-2,3.17,3.17,0,0,1,.78.28A3.58,3.58,0,0,1,172.84,267.52Zm1.09-5.31a5.74,5.74,0,0,0,1.34-1.73,6,6,0,0,0,.44-1.27,3.48,3.48,0,0,1,2.54-.46,3.17,3.17,0,0,1,.78.28,3.36,3.36,0,0,1,1.71,2,3.74,3.74,0,0,1-.24,2.8,3.62,3.62,0,0,1-4,2,2.78,2.78,0,0,1-.78-.27,3.84,3.84,0,0,1-.54-.35A5.49,5.49,0,0,0,173.93,262.21Zm15.67,15.1a7.48,7.48,0,0,0-5.08,2.14,7,7,0,0,0-1.2-1.4,7.41,7.41,0,0,0-3.45-1.77,7.09,7.09,0,0,0-2.16-.15,7.44,7.44,0,0,0-2.46-5.39,7.62,7.62,0,0,0-1.52-1.05,5.49,5.49,0,0,0,.88-1.28,6,6,0,0,0,.38-1,6,6,0,0,0,1.1.38,5.27,5.27,0,0,0,1.58.08l8.3,7.52a.93.93,0,0,0,.46.24,1,1,0,0,0,.88-1.72l-7.41-6.72h0a5.71,5.71,0,0,0,2.38-2.48,3.52,3.52,0,0,0,.18-.45h0a7.52,7.52,0,0,0,4.8,1.3,7.48,7.48,0,0,0,4,6.45A7.48,7.48,0,0,0,189.6,277.31Z"/><path class="cls-1" d="M245.77,213.84a5,5,0,0,0-1.84-4.17l0,0a20.62,20.62,0,0,0,1.52-7c.55-9.24-12.2-14.84-25.08-15.6,0,0,0,0,0,0-.51,0-1-.12-1.54-.15-12.6-.75-23.37,7.42-24,18.21a5.66,5.66,0,0,0,3.38,5.49A9.28,9.28,0,0,0,193.9,222,9.33,9.33,0,0,0,197.11,234a9.33,9.33,0,0,0,12.27,8.8l.09.08a.76.76,0,0,0,.18.18,1.88,1.88,0,0,0,.25.24c.19.17.37.33.63.53l.18.14a8.31,8.31,0,0,0,1,.65l.09,0a9.14,9.14,0,0,0,.93.42l.17.06.19.07c.29.1.57.17.78.22l.44.11a10.16,10.16,0,0,0,1.25.16,9.77,9.77,0,0,0,1.32,0,1.68,1.68,0,0,0,.31,0,6.55,6.55,0,0,0,.8-.12l.37-.08.14,0a6.72,6.72,0,0,0,.93-.29l.12-.05a9.08,9.08,0,0,0,1.16-.55l.18-.12.73-.48.15-.11.13-.11h0l.19-.14a9.48,9.48,0,0,0,3.41.87,9.35,9.35,0,0,0,9.82-8.17,9.31,9.31,0,0,0,4.6-11.6,9.19,9.19,0,0,0,1-3.69,9.4,9.4,0,0,0-.21-2.44A5,5,0,0,0,245.77,213.84Zm-3-11.39a18,18,0,0,1-1.3,6.1,0,0,0,0,1,0,0c-.13,0-.26-.05-.4-.06a3.59,3.59,0,0,0-.66,0c0-.26.1-.5.12-.77.35-5.86-2.39-11.3-7-15.17C239.1,194.85,243,198.27,242.75,202.45Zm-24.83,4.16a5,5,0,0,0-5.33,4.73,4.92,4.92,0,0,0,0,1c-.53.06-1,.14-1.57.25l-.21.06.06,0-1,.23a9.32,9.32,0,0,0-5.65-3.34,5.59,5.59,0,0,0,1.82-3.8c.31-5.29,5.75-9.28,12.13-8.9s11.32,5,11,10.27a5.64,5.64,0,0,0,1.42,4.08,9.3,9.3,0,0,0-5.5,2.6c-.3-.12-.6-.24-.89-.33l-.14-.05-.09,0c-.5-.17-1-.31-1.52-.44a4.74,4.74,0,0,0,.16-1A5,5,0,0,0,217.92,206.61Zm2,5.16a2.31,2.31,0,1,1-2.17-2.44A2.31,2.31,0,0,1,219.93,211.77Zm-22.42-6.54c.55-9.29,10-16.31,21.13-15.65s19.68,8.75,19.13,18a2.92,2.92,0,1,1-5.84-.34c.41-6.79-5.68-12.69-13.56-13.16s-14.62,4.68-15,11.47a2.93,2.93,0,0,1-5.84-.35Zm39.7,19.94a6.55,6.55,0,0,1,.6,3.15,6.67,6.67,0,0,1-4.25,5.79,1.33,1.33,0,0,0-.87,1.23,1.07,1.07,0,0,0,0,.18,6.61,6.61,0,0,1-7,6.21,6.37,6.37,0,0,1-3-1,1.39,1.39,0,0,0-1.38,0,1.57,1.57,0,0,0-.33.25l-.13.12a4.94,4.94,0,0,1-.6.53c-.09.06-.17.13-.2.14a4.78,4.78,0,0,1-.47.32l-.16.1a7,7,0,0,1-.73.36l-.18.06a6,6,0,0,1-.61.19l-.19,0-.15,0a5.15,5.15,0,0,1-.69.1,1.13,1.13,0,0,1-.18,0,6.59,6.59,0,0,1-1.77-.11l-.25-.06c-.2-.05-.39-.1-.6-.17l-.13,0-.15-.06a5.83,5.83,0,0,1-.62-.28l-.13-.06a6.23,6.23,0,0,1-.72-.46l-.18-.15c-.14-.1-.27-.22-.4-.33l0,0-.21-.21a3.48,3.48,0,0,1-.47-.53l-.13-.15a1.25,1.25,0,0,0-.27-.25,1.35,1.35,0,0,0-1.37-.13,6.53,6.53,0,0,1-3.15.6,6.61,6.61,0,0,1-6.2-7l-1.36-.11,1.38-.07a1.38,1.38,0,0,0-.72-1.33,6.61,6.61,0,0,1-2.58-9.31,1.35,1.35,0,0,0,.07-1.28,6.6,6.6,0,0,1,11.57-6.3,1.36,1.36,0,0,0,1.55.58c.56-.17,1.13-.32,1.74-.45l.14,0a14,14,0,0,1,1.58-.25,1.55,1.55,0,0,0,.21,0l.12,0,.28,0a5,5,0,0,0,7.17.41l.15,0,.28.08.17.05c.51.12,1,.26,1.5.43l.19.06a17.15,17.15,0,0,1,1.65.65,1.39,1.39,0,0,0,1.61-.39,6.53,6.53,0,0,1,9.67-.55,5,5,0,0,0,1.24,1.62,6.6,6.6,0,0,1,.79,3.5,6.48,6.48,0,0,1-1,3A1.34,1.34,0,0,0,237.21,225.17Zm3.39-9.32a2.31,2.31,0,1,1,2.45-2.17A2.31,2.31,0,0,1,240.6,215.85Zm-16.52,3.22a12.22,12.22,0,0,1-6.2-1.28,1.36,1.36,0,0,0-1.24-.07,12.23,12.23,0,0,1-6.3.54,1.38,1.38,0,0,0-1.57,1.13A1.36,1.36,0,0,0,209.9,221a15,15,0,0,0,1.7.19h.6c.34,1.52,2.18,2.66,4.69,2.81s4.48-.77,5-2.24l.61.07c.58,0,1.15,0,1.71,0a1.37,1.37,0,0,0-.12-2.73Zm-7,2.17a4.64,4.64,0,0,1-1.58-.35,11.09,11.09,0,0,0,1.63-.42,11.15,11.15,0,0,0,1.57.61A4.86,4.86,0,0,1,217.05,221.24ZM214,204.33a2,2,0,1,1-1.92-2.16A2.06,2.06,0,0,1,214,204.33Zm12.25.72a2,2,0,1,1-1.92-2.16A2,2,0,0,1,226.21,205.05Z"/><path class="cls-1" d="M257.57,148.72a1.4,1.4,0,1,1-1.59-1.17A1.4,1.4,0,0,1,257.57,148.72Zm-10.8,3.39a1.4,1.4,0,1,0,1.59,1.17A1.4,1.4,0,0,0,246.77,152.11Zm0,0a1.4,1.4,0,1,0,1.59,1.17A1.4,1.4,0,0,0,246.77,152.11Zm-4.68,9.07a1.4,1.4,0,1,0,1.59,1.17A1.4,1.4,0,0,0,242.09,161.18Zm1.55,10.13a1.4,1.4,0,1,0,1.6,1.17A1.41,1.41,0,0,0,243.64,171.31Zm-1.55-10.13a1.4,1.4,0,1,0,1.59,1.17A1.4,1.4,0,0,0,242.09,161.18Zm4.68-9.07a1.4,1.4,0,1,0,1.59,1.17A1.4,1.4,0,0,0,246.77,152.11ZM266,149.18a1.39,1.39,0,0,0-1.16,1.59,1.4,1.4,0,1,0,1.16-1.59Zm7.17,7.26a1.4,1.4,0,1,0,1.59,1.17A1.41,1.41,0,0,0,273.18,156.44Zm1.55,10.13a1.4,1.4,0,1,0,1.59,1.17A1.4,1.4,0,0,0,274.73,166.57Zm.51,11.39c0,.13.06.23.08.36.66,4.28-1.25,6.88-5.53,7.54a10.58,10.58,0,0,1-5.64-.63,3.39,3.39,0,0,1-2.25,1.42,3.34,3.34,0,0,1-2.56-.68,10.63,10.63,0,0,1-5.19,2.28c-4.28.66-6.89-1.25-7.54-5.53,0-.13,0-.23,0-.36a20.94,20.94,0,1,1,28.66-4.4Zm-16.75,5.82-.86-5.62a2.5,2.5,0,0,1,0-.47,8.72,8.72,0,0,0-5.11-.54A4.56,4.56,0,0,0,249,182c.41,3.42,2,4.72,5.31,4.21a8.61,8.61,0,0,0,4.35-2A3.31,3.31,0,0,1,258.49,183.78Zm3.09-6.23a1,1,0,0,0-1.25-1.17c-.74.11-1.25.8-1.71,1.62l.86,5.63a2.75,2.75,0,0,0,2.12,1,1,1,0,0,0,.85-1.49Zm1-2.47a10.57,10.57,0,0,1,5.19-2.3h.14A12,12,0,1,0,252,175.21h-.06l.2,0a10.58,10.58,0,0,1,5.64.63A3.38,3.38,0,0,1,260,174.4,3.33,3.33,0,0,1,262.59,175.08ZM273,178.3a4.55,4.55,0,0,0-4.84-3.55,8.72,8.72,0,0,0-4.72,2.05,2.3,2.3,0,0,1,.12.45l.86,5.62a2.42,2.42,0,0,1,0,.46,8.63,8.63,0,0,0,4.75.6C272.48,183.42,273.63,181.7,273,178.3Zm1.47-2.73a18.94,18.94,0,1,0-27.88,4.27,5.15,5.15,0,0,1,3-3.91h0a14,14,0,1,1,20.77-3.18A5.1,5.1,0,0,1,274.47,175.57Z"/><rect class="cls-2" width="285" height="285"/></g></g></svg>